<?xml version="1.0" encoding="UTF-8" ?>
<!DOCTYPE svg PUBLIC "-//W3C//DTD SVG 1.1//EN" "http://www.w3.org/Graphics/SVG/1.1/DTD/svg11.dtd">
<svg width="294pt" height="390pt" viewBox="0 0 294 390" version="1.1" xmlns="http://www.w3.org/2000/svg">
<g id="#0000007b">
<path fill="#000000" opacity="0.48" d=" M 0.00 0.00 L 2.47 0.00 C 3.58 3.29 4.12 6.88 6.23 9.74 C 9.43 14.01 14.41 16.80 19.64 17.70 C 25.37 18.75 31.22 18.34 37.00 18.38 C 44.69 18.40 52.38 18.34 60.06 18.32 C 70.78 18.05 80.84 25.43 84.82 35.21 C 87.32 41.15 86.59 47.72 86.64 54.00 C 86.61 83.00 86.61 112.00 86.64 141.00 C 86.57 146.95 87.37 153.21 84.89 158.82 C 81.03 167.88 72.25 175.55 62.04 175.64 C 50.69 175.74 39.34 175.58 27.99 175.60 C 22.57 175.73 16.88 176.33 12.14 179.17 C 8.98 181.29 6.37 184.13 3.70 186.82 C 3.82 186.40 4.06 185.56 4.18 185.13 C 8.57 178.60 15.71 173.05 23.95 173.39 C 36.63 173.46 49.32 173.41 62.00 173.51 C 66.26 173.63 70.57 172.58 74.01 169.99 C 78.84 166.49 83.44 161.39 83.48 155.08 C 83.45 119.39 83.44 83.69 83.47 48.00 C 83.39 43.46 84.06 38.76 82.65 34.37 C 80.72 29.66 76.85 25.97 72.58 23.34 C 68.54 20.81 63.61 20.69 58.99 20.68 C 49.00 20.80 39.00 20.67 29.01 20.80 C 24.82 20.80 20.50 20.88 16.52 19.38 C 10.62 17.26 6.11 12.42 3.01 7.11 C 2.63 6.40 2.27 5.68 1.91 4.96 C 1.43 4.69 0.48 4.15 0.00 3.88 L 0.00 0.00 M 83.57 52.00 C 83.61 82.00 83.59 112.00 83.58 142.00 C 83.68 146.45 83.02 151.05 84.56 155.33 C 85.21 150.58 84.96 145.78 84.97 141.00 C 84.97 111.67 84.97 82.34 84.97 53.00 C 84.95 48.25 85.19 43.48 84.58 38.76 C 83.06 43.01 83.66 47.58 83.57 52.00 Z" />
</g>
<g id="#00000037">
<path fill="#000000" opacity="0.22" d=" M 198.25 0.00 L 211.06 0.00 C 208.25 3.60 203.83 4.11 199.58 3.88 C 199.16 2.58 198.71 1.29 198.25 0.00 Z" />
</g>
<g id="#00000078">
<path fill="#000000" opacity="0.47" d=" M 291.41 0.00 L 294.00 0.00 L 294.00 3.52 C 292.89 4.63 291.78 5.74 290.90 7.04 C 287.32 14.32 280.23 20.00 271.97 20.58 C 263.99 21.04 255.99 20.55 248.00 20.72 C 238.86 20.77 229.53 19.98 220.64 22.62 C 224.32 19.49 229.14 18.09 233.94 18.31 C 245.30 18.32 256.67 18.47 268.04 18.35 C 274.95 18.32 282.15 16.10 286.88 10.83 C 289.68 7.89 290.22 3.71 291.41 0.00 Z" />
</g>
<g id="#000000c9">
<path fill="#000000" opacity="0.79" d=" M 0.00 3.88 C 0.48 4.15 1.43 4.69 1.91 4.96 C 2.27 5.68 2.63 6.40 3.01 7.11 C -0.69 10.82 0.86 16.33 0.63 21.00 C 0.71 69.00 0.64 117.00 0.67 165.00 C 0.70 172.31 0.45 179.63 0.87 186.94 C 1.98 186.35 3.10 185.76 4.18 185.13 C 4.06 185.56 3.82 186.40 3.70 186.82 C 3.57 187.36 3.30 188.43 3.16 188.97 C 2.10 189.40 1.05 189.86 -0.00 190.33 L 0.00 3.88 Z" />
<path fill="#000000" opacity="0.79" d=" M 290.90 7.04 C 291.78 5.74 292.89 4.63 294.00 3.52 L 294.00 191.14 C 292.50 189.24 290.96 187.37 289.58 185.39 C 290.77 185.87 291.96 186.34 293.16 186.82 C 293.61 130.89 293.13 74.94 293.40 19.00 C 293.35 14.91 294.29 10.15 290.90 7.04 Z" />
</g>
<g id="#000000ff">
<path fill="#000000" opacity="1.00" d=" M 0.63 21.00 C 0.86 16.33 -0.69 10.82 3.01 7.11 C 6.11 12.42 10.62 17.26 16.52 19.38 C 20.50 20.88 24.82 20.80 29.01 20.80 C 39.00 20.67 49.00 20.80 58.99 20.68 C 63.61 20.69 68.54 20.81 72.58 23.34 C 76.85 25.97 80.72 29.66 82.65 34.37 C 84.06 38.76 83.39 43.46 83.47 48.00 C 83.44 83.69 83.45 119.39 83.48 155.08 C 83.44 161.39 78.84 166.49 74.01 169.99 C 70.57 172.58 66.26 173.63 62.00 173.51 C 49.32 173.41 36.63 173.46 23.95 173.39 C 15.71 173.05 8.57 178.60 4.18 185.13 C 3.10 185.76 1.98 186.35 0.87 186.94 C 0.45 179.63 0.70 172.31 0.67 165.00 C 0.64 117.00 0.71 69.00 0.63 21.00 M 34.89 70.13 C 29.98 73.34 25.84 77.61 21.86 81.88 C 17.60 85.27 13.84 89.25 9.47 92.51 C 7.13 93.99 6.73 97.01 7.58 99.46 C 10.00 102.05 13.03 103.98 15.47 106.55 C 18.07 109.35 21.56 111.08 24.20 113.83 C 28.32 118.32 33.65 121.49 37.52 126.24 C 38.92 128.28 41.27 128.84 43.62 128.89 C 43.83 124.07 43.14 119.17 44.36 114.44 C 49.63 114.11 54.98 114.66 60.17 113.42 L 60.92 113.49 C 61.91 106.37 61.29 99.16 61.50 92.00 C 61.46 88.38 61.88 84.70 61.17 81.13 C 60.84 79.11 58.61 79.13 57.03 78.88 C 52.44 78.66 47.80 79.04 43.28 78.02 C 43.20 73.99 44.09 69.85 43.00 65.91 C 39.97 64.55 36.25 67.45 34.89 70.13 Z" />
<path fill="#000000" opacity="1.00" d=" M 271.97 20.58 C 280.23 20.00 287.32 14.32 290.90 7.04 C 294.29 10.15 293.35 14.91 293.40 19.00 C 293.13 74.94 293.61 130.89 293.16 186.82 C 291.96 186.34 290.77 185.87 289.58 185.39 C 285.12 177.96 276.55 173.88 268.04 173.82 C 256.01 173.67 243.97 173.84 231.94 173.82 C 222.61 174.32 214.49 167.16 210.82 159.08 C 210.29 117.92 211.08 76.74 210.42 35.58 C 210.53 34.90 210.75 33.54 210.86 32.86 C 213.47 28.90 216.88 25.50 220.64 22.62 C 229.53 19.98 238.86 20.77 248.00 20.72 C 255.99 20.55 263.99 21.04 271.97 20.58 M 250.78 65.62 C 250.33 70.09 250.91 74.63 250.10 79.05 C 244.27 79.37 238.44 79.17 232.62 79.61 C 231.48 83.30 231.42 87.17 231.58 91.00 C 231.86 98.48 230.88 106.07 232.69 113.42 C 238.27 113.97 244.00 113.51 249.58 114.47 C 250.70 119.20 250.42 124.07 250.47 128.89 C 254.57 128.87 257.14 125.41 259.82 122.81 C 262.90 119.57 266.31 116.65 269.21 113.24 C 273.42 110.59 276.82 106.87 280.70 103.78 C 282.82 101.89 285.38 100.21 286.59 97.54 C 287.36 95.17 285.58 93.15 283.40 92.51 C 278.46 87.49 273.44 82.55 268.18 77.86 C 265.19 75.21 262.65 71.92 259.03 70.07 C 256.85 67.71 254.42 64.68 250.78 65.62 Z" />
<path fill="#000000" opacity="1.00" d=" M 3.00 200.62 C 5.81 204.21 8.40 208.19 12.43 210.54 C 16.15 212.92 20.66 213.58 25.00 213.54 C 37.02 213.49 49.05 213.55 61.07 213.47 C 65.91 213.25 70.65 214.93 74.72 217.46 C 78.50 219.78 80.41 223.94 82.88 227.45 C 83.07 230.63 83.24 233.82 83.37 237.02 C 83.56 270.68 83.01 304.35 83.71 338.00 C 83.59 343.81 83.40 349.62 83.20 355.42 C 81.38 358.50 79.03 361.25 76.42 363.69 C 72.57 367.28 67.16 368.62 62.01 368.65 C 46.64 368.74 31.28 368.47 15.91 368.78 C 15.93 369.27 15.93 369.77 15.93 370.28 C 13.12 371.06 10.01 371.68 7.98 373.96 C 5.74 376.34 3.49 378.71 0.88 380.69 C 0.14 374.15 0.56 367.56 0.50 361.00 C 0.45 312.00 0.55 263.00 0.45 214.00 C 0.62 209.46 -0.71 204.14 3.00 200.62 M 40.01 257.96 C 35.02 263.31 29.41 268.04 24.18 273.15 C 21.72 274.19 19.70 275.95 17.82 277.80 C 13.92 281.56 9.38 284.72 6.09 289.08 C 5.17 290.17 5.16 291.84 6.05 292.95 C 7.74 295.25 10.05 296.97 12.18 298.82 C 21.47 306.85 30.39 315.30 39.59 323.42 C 40.96 325.02 42.97 324.42 44.67 323.85 C 45.25 319.94 45.15 316.00 44.96 312.07 C 44.70 310.40 46.55 309.46 47.98 309.68 C 51.84 309.41 55.74 310.01 59.57 309.38 C 62.78 308.00 63.41 304.14 63.33 301.03 C 63.25 293.67 63.41 286.30 63.35 278.94 C 63.28 276.51 62.95 272.71 59.85 272.43 C 55.19 272.08 50.51 272.43 45.84 272.28 C 44.68 267.93 45.54 263.39 45.26 258.96 C 43.63 258.07 41.86 257.48 40.01 257.96 Z" />
<path fill="#000000" opacity="1.00" d=" M 288.78 204.92 C 290.16 203.60 291.60 202.34 293.03 201.07 C 293.61 208.70 293.28 216.36 293.34 224.00 C 293.35 270.33 293.34 316.67 293.34 363.00 C 293.38 369.04 293.51 375.09 293.02 381.11 C 289.28 377.40 286.32 372.35 280.89 370.91 C 276.49 369.15 271.72 368.50 267.00 368.57 C 256.32 368.67 245.64 368.59 234.97 368.67 C 229.88 368.83 224.92 367.47 220.20 365.70 C 217.90 363.74 215.83 361.55 213.68 359.45 C 209.32 350.31 210.02 340.08 210.30 330.26 C 210.80 301.18 210.38 272.08 210.51 243.00 C 210.70 237.47 209.41 231.42 212.35 226.38 C 216.58 219.28 224.52 214.12 232.94 214.36 C 241.96 214.40 250.98 214.42 260.00 214.43 C 265.52 214.41 271.16 214.81 276.55 213.35 C 281.43 211.99 285.60 208.78 288.78 204.92 M 249.46 258.43 C 248.81 262.90 250.71 268.21 248.11 272.10 C 243.61 273.83 237.98 270.89 233.88 273.97 C 232.20 274.51 231.22 276.21 231.41 277.94 C 231.34 286.31 231.38 294.69 231.40 303.07 C 231.00 305.49 233.26 306.90 234.57 308.57 C 239.09 310.10 243.90 309.25 248.57 309.51 C 249.61 314.20 249.09 319.03 249.34 323.79 C 252.09 324.57 255.31 324.22 255.94 320.92 C 257.85 319.59 259.60 317.95 260.74 315.89 C 263.46 315.26 265.36 313.14 267.37 311.37 C 273.25 305.90 279.40 300.72 285.49 295.48 C 287.02 294.02 289.40 292.07 288.22 289.69 C 285.70 285.98 282.04 283.25 278.70 280.33 C 270.78 273.26 262.77 266.29 255.02 259.03 C 253.53 257.21 251.39 257.92 249.46 258.43 Z" />
</g>
<g id="#00000052">
<path fill="#000000" opacity="0.32" d=" M 206.87 46.97 C 206.80 42.00 207.84 36.92 210.86 32.86 C 210.75 33.54 210.53 34.90 210.42 35.58 C 209.61 39.34 208.68 43.11 208.70 46.98 C 208.84 77.32 208.74 107.66 208.76 138.00 C 208.87 145.04 207.85 152.45 210.82 159.08 C 214.49 167.16 222.61 174.32 231.94 173.82 C 243.97 173.84 256.01 173.67 268.04 173.82 C 276.55 173.88 285.12 177.96 289.58 185.39 C 290.96 187.37 292.50 189.24 294.00 191.14 L 294.00 197.22 C 292.62 198.41 291.24 199.61 289.95 200.90 C 291.17 194.96 291.19 188.00 286.56 183.44 C 282.17 177.85 274.81 176.24 268.05 176.18 C 256.04 175.88 244.01 176.57 232.02 175.96 C 217.98 175.20 206.62 161.86 206.86 148.04 C 206.95 114.35 206.93 80.66 206.87 46.97 Z" />
</g>
<g id="#000000c4">
<path fill="#000000" opacity="0.77" d=" M 208.70 46.98 C 208.68 43.11 209.61 39.34 210.42 35.58 C 211.08 76.74 210.29 117.92 210.82 159.08 C 207.85 152.45 208.87 145.04 208.76 138.00 C 208.74 107.66 208.84 77.32 208.70 46.98 Z" />
</g>
<g id="#000000ad">
<path fill="#000000" opacity="0.68" d=" M 83.57 52.00 C 83.66 47.58 83.06 43.01 84.58 38.76 C 85.19 43.48 84.95 48.25 84.97 53.00 C 84.97 82.34 84.97 111.67 84.97 141.00 C 84.96 145.78 85.21 150.58 84.56 155.33 C 83.02 151.05 83.68 146.45 83.58 142.00 C 83.59 112.00 83.61 82.00 83.57 52.00 Z" />
<path fill="#000000" opacity="0.68" d=" M 208.61 239.99 C 208.77 237.74 208.32 235.09 209.73 233.19 C 210.55 236.38 210.45 239.73 210.46 243.01 C 210.25 272.09 210.59 301.18 210.30 330.26 C 210.02 340.08 209.32 350.31 213.68 359.45 C 213.27 359.04 212.44 358.24 212.03 357.83 C 209.51 353.33 208.95 348.09 208.94 343.02 C 208.36 308.68 208.88 274.33 208.61 239.99 Z" />
</g>
<g id="#686868ff">
<path fill="#686868" opacity="1.00" d=" M 34.89 70.13 C 36.25 67.45 39.97 64.55 43.00 65.91 C 44.09 69.85 43.20 73.99 43.28 78.02 C 44.06 79.09 44.60 80.85 46.14 80.96 C 50.65 81.47 55.21 81.12 59.74 81.36 C 60.78 91.58 59.25 101.90 57.39 111.95 C 55.58 107.04 50.83 104.90 46.80 102.18 C 40.18 96.07 33.24 89.69 29.95 81.06 C 29.66 80.06 28.94 78.73 29.86 77.84 C 31.81 75.46 34.02 73.18 34.89 70.13 Z" />
</g>
<g id="#5a5a5aff">
<path fill="#5a5a5a" opacity="1.00" d=" M 250.78 65.62 C 254.42 64.68 256.85 67.71 259.03 70.07 C 256.95 69.12 254.83 68.27 252.73 67.38 C 253.35 72.47 251.80 77.48 251.63 82.47 C 255.97 88.37 261.55 93.46 267.80 97.32 C 270.63 99.10 273.07 101.55 276.19 102.85 C 280.15 103.28 282.89 99.85 285.09 97.09 C 284.54 95.56 284.00 94.02 283.40 92.51 C 285.58 93.15 287.36 95.17 286.59 97.54 C 285.38 100.21 282.82 101.89 280.70 103.78 C 276.82 106.87 273.42 110.59 269.21 113.24 C 267.56 113.81 265.90 114.30 264.24 114.80 C 261.32 111.32 258.12 107.99 254.04 105.88 C 247.91 102.45 243.50 96.80 240.09 90.80 C 238.56 87.90 233.85 86.15 234.48 82.57 C 238.80 81.74 243.25 82.45 247.57 81.61 C 248.62 81.00 249.32 79.97 250.10 79.05 C 250.91 74.63 250.33 70.09 250.78 65.62 Z" />
<path fill="#5a5a5a" opacity="1.00" d=" M 21.86 81.88 C 25.84 77.61 29.98 73.34 34.89 70.13 C 34.02 73.18 31.81 75.46 29.86 77.84 C 28.94 78.73 29.66 80.06 29.95 81.06 C 33.24 89.69 40.18 96.07 46.80 102.18 C 50.83 104.90 55.58 107.04 57.39 111.95 C 59.25 101.90 60.78 91.58 59.74 81.36 C 55.21 81.12 50.65 81.47 46.14 80.96 C 44.60 80.85 44.06 79.09 43.28 78.02 C 47.80 79.04 52.44 78.66 57.03 78.88 C 58.61 79.13 60.84 79.11 61.17 81.13 C 61.88 84.70 61.46 88.38 61.50 92.00 C 61.29 99.16 61.91 106.37 60.92 113.49 L 60.17 113.42 C 54.79 112.77 49.36 113.17 43.97 112.89 C 41.37 112.92 39.29 111.20 37.56 109.46 C 31.36 102.74 23.04 97.50 19.69 88.59 C 19.42 86.20 20.91 83.99 21.86 81.88 Z" />
</g>
<g id="#666666ff">
<path fill="#666666" opacity="1.00" d=" M 252.73 67.38 C 254.83 68.27 256.95 69.12 259.03 70.07 C 262.65 71.92 265.19 75.21 268.18 77.86 C 273.44 82.55 278.46 87.49 283.40 92.51 C 284.00 94.02 284.54 95.56 285.09 97.09 C 282.89 99.85 280.15 103.28 276.19 102.85 C 273.07 101.55 270.63 99.10 267.80 97.32 C 261.55 93.46 255.97 88.37 251.63 82.47 C 251.80 77.48 253.35 72.47 252.73 67.38 Z" />
</g>
<g id="#4f5051ff">
<path fill="#4f5051" opacity="1.00" d=" M 232.62 79.61 C 238.44 79.17 244.27 79.37 250.10 79.05 C 249.32 79.97 248.62 81.00 247.57 81.61 C 243.25 82.45 238.80 81.74 234.48 82.57 C 233.85 86.15 238.56 87.90 240.09 90.80 C 243.50 96.80 247.91 102.45 254.04 105.88 C 258.12 107.99 261.32 111.32 264.24 114.80 C 265.90 114.30 267.56 113.81 269.21 113.24 C 266.31 116.65 262.90 119.57 259.82 122.81 C 257.14 125.41 254.57 128.87 250.47 128.89 C 250.42 124.07 250.70 119.20 249.58 114.47 C 244.00 113.51 238.27 113.97 232.69 113.42 C 230.88 106.07 231.86 98.48 231.58 91.00 C 231.42 87.17 231.48 83.30 232.62 79.61 Z" />
</g>
<g id="#4f4f50ff">
<path fill="#4f4f50" opacity="1.00" d=" M 9.47 92.51 C 13.84 89.25 17.60 85.27 21.86 81.88 C 20.91 83.99 19.42 86.20 19.69 88.59 C 23.04 97.50 31.36 102.74 37.56 109.46 C 39.29 111.20 41.37 112.92 43.97 112.89 C 49.36 113.17 54.79 112.77 60.17 113.42 C 54.98 114.66 49.63 114.11 44.36 114.44 C 43.14 119.17 43.83 124.07 43.62 128.89 C 41.27 128.84 38.92 128.28 37.52 126.24 C 33.65 121.49 28.32 118.32 24.20 113.83 C 21.56 111.08 18.07 109.35 15.47 106.55 C 13.03 103.98 10.00 102.05 7.58 99.46 C 6.73 97.01 7.13 93.99 9.47 92.51 Z" />
</g>
<g id="#0000007e">
<path fill="#000000" opacity="0.49" d=" M -0.00 190.33 C 1.05 189.86 2.10 189.40 3.16 188.97 C 2.96 192.85 3.15 196.74 3.00 200.62 C -0.71 204.14 0.62 209.46 0.45 214.00 C 0.55 263.00 0.45 312.00 0.50 361.00 C 0.56 367.56 0.14 374.15 0.88 380.69 C 3.49 378.71 5.74 376.34 7.98 373.96 C 10.01 371.68 13.12 371.06 15.93 370.28 C 15.91 370.60 15.89 371.26 15.87 371.58 C 8.11 373.17 4.90 381.04 0.00 386.29 L 0.00 190.33 Z" />
</g>
<g id="#000000c5">
<path fill="#000000" opacity="0.77" d=" M 289.95 200.90 C 291.24 199.61 292.62 198.41 294.00 197.22 L 294.00 385.46 C 292.20 384.01 290.71 382.23 289.66 380.17 C 287.60 376.37 284.20 373.58 280.89 370.91 C 286.32 372.35 289.28 377.40 293.02 381.11 C 293.51 375.09 293.38 369.04 293.34 363.00 C 293.34 316.67 293.35 270.33 293.34 224.00 C 293.28 216.36 293.61 208.70 293.03 201.07 C 291.60 202.34 290.16 203.60 288.78 204.92 C 288.91 204.47 289.15 203.57 289.27 203.12 C 289.44 202.57 289.78 201.45 289.95 200.90 Z" />
</g>
<g id="#00000063">
<path fill="#000000" opacity="0.39" d=" M 277.38 211.24 C 281.96 209.58 285.53 206.11 289.27 203.12 C 289.15 203.57 288.91 204.47 288.78 204.92 C 285.60 208.78 281.43 211.99 276.55 213.35 C 271.16 214.81 265.52 214.41 260.00 214.43 C 250.98 214.42 241.96 214.40 232.94 214.36 C 224.52 214.12 216.58 219.28 212.35 226.38 C 209.41 231.42 210.70 237.47 210.51 243.00 C 210.38 272.08 210.80 301.18 210.30 330.26 C 210.59 301.18 210.25 272.09 210.46 243.01 C 210.45 239.73 210.55 236.38 209.73 233.19 C 208.32 235.09 208.77 237.74 208.61 239.99 C 208.88 274.33 208.36 308.68 208.94 343.02 C 208.95 348.09 209.51 353.33 212.03 357.83 C 207.52 353.94 207.42 347.50 207.23 342.02 C 207.27 337.22 205.25 332.47 206.52 327.69 C 207.62 322.52 207.25 317.23 207.20 312.00 C 207.20 291.00 207.22 270.00 207.19 249.00 C 207.19 242.16 206.45 234.95 209.47 228.57 C 213.77 218.88 224.14 211.44 234.98 212.27 C 244.99 212.47 254.99 212.27 265.00 212.42 C 269.13 212.41 273.40 212.60 277.38 211.24 Z" />
</g>
<g id="#000000ae">
<path fill="#000000" opacity="0.68" d=" M 82.88 227.45 C 83.73 228.45 84.69 229.47 85.02 230.79 C 86.88 237.36 86.25 244.26 86.30 251.00 C 86.32 279.67 86.25 308.33 86.37 337.00 C 86.25 343.20 86.47 349.89 83.20 355.42 C 83.40 349.62 83.59 343.81 83.71 338.00 C 83.01 304.35 83.56 270.68 83.37 237.02 C 83.24 233.82 83.07 230.63 82.88 227.45 Z" />
</g>
<g id="#505151ff">
<path fill="#505151" opacity="1.00" d=" M 40.01 257.96 C 41.86 257.48 43.63 258.07 45.26 258.96 C 45.54 263.39 44.68 267.93 45.84 272.28 C 50.51 272.43 55.19 272.08 59.85 272.43 C 62.95 272.71 63.28 276.51 63.35 278.94 C 63.41 286.30 63.25 293.67 63.33 301.03 C 63.41 304.14 62.78 308.00 59.57 309.38 C 55.74 310.01 51.84 309.41 47.98 309.68 C 46.55 309.46 44.70 310.40 44.96 312.07 C 45.15 316.00 45.25 319.94 44.67 323.85 C 42.97 324.42 40.96 325.02 39.59 323.42 C 30.39 315.30 21.47 306.85 12.18 298.82 C 10.05 296.97 7.74 295.25 6.05 292.95 C 5.16 291.84 5.17 290.17 6.09 289.08 C 9.38 284.72 13.92 281.56 17.82 277.80 C 19.70 275.95 21.72 274.19 24.18 273.15 C 20.20 277.86 15.35 281.69 10.78 285.79 C 9.26 287.46 6.89 289.22 7.26 291.76 C 8.63 294.56 11.36 296.34 13.61 298.39 C 19.11 302.91 23.94 308.24 29.93 312.16 C 31.65 313.74 33.29 315.40 34.93 317.06 C 37.00 319.40 39.39 321.43 42.16 322.91 C 43.22 318.81 43.08 314.56 43.53 310.38 C 43.55 309.04 45.11 308.48 46.23 308.42 C 50.77 308.04 55.35 308.22 59.90 307.85 C 62.17 302.15 61.24 295.96 61.40 290.00 C 61.51 284.68 61.62 279.34 60.89 274.05 C 56.31 273.46 51.70 273.68 47.10 273.54 C 45.33 273.75 43.87 272.24 43.69 270.55 C 43.15 267.14 43.72 263.64 43.07 260.25 C 42.07 259.44 41.05 258.68 40.01 257.96 Z" />
</g>
<g id="#767677ff">
<path fill="#767677" opacity="1.00" d=" M 249.46 258.43 C 251.39 257.92 253.53 257.21 255.02 259.03 C 262.77 266.29 270.78 273.26 278.70 280.33 C 282.04 283.25 285.70 285.98 288.22 289.69 C 289.40 292.07 287.02 294.02 285.49 295.48 C 279.40 300.72 273.25 305.90 267.37 311.37 C 265.36 313.14 263.46 315.26 260.74 315.89 L 261.21 315.13 C 263.20 312.55 265.58 310.31 268.04 308.18 C 274.24 302.56 280.60 297.08 286.38 291.02 C 282.74 285.88 277.40 282.42 273.05 277.95 C 268.23 273.10 262.65 269.05 258.03 264.00 C 256.47 262.19 254.46 260.90 252.13 260.39 C 251.55 264.74 252.15 269.32 250.48 273.48 C 244.96 274.05 239.42 274.11 233.88 273.97 C 237.98 270.89 243.61 273.83 248.11 272.10 C 250.71 268.21 248.81 262.90 249.46 258.43 Z" />
</g>
<g id="#9d9e9eff">
<path fill="#9d9e9e" opacity="1.00" d=" M 24.18 273.15 C 29.41 268.04 35.02 263.31 40.01 257.96 C 41.05 258.68 42.07 259.44 43.07 260.25 C 43.72 263.64 43.15 267.14 43.69 270.55 C 43.87 272.24 45.33 273.75 47.10 273.54 C 51.70 273.68 56.31 273.46 60.89 274.05 C 61.62 279.34 61.51 284.68 61.40 290.00 C 61.24 295.96 62.17 302.15 59.90 307.85 C 55.35 308.22 50.77 308.04 46.23 308.42 C 45.11 308.48 43.55 309.04 43.53 310.38 C 43.08 314.56 43.22 318.81 42.16 322.91 C 39.39 321.43 37.00 319.40 34.93 317.06 C 37.04 318.25 39.26 319.23 41.49 320.18 C 41.91 316.14 39.99 310.65 43.77 307.81 C 48.68 306.44 53.92 307.23 58.97 306.86 C 59.75 303.63 60.27 300.34 60.18 297.01 C 60.08 290.92 60.62 284.81 59.89 278.74 C 59.72 277.39 59.45 276.06 59.18 274.73 C 54.36 274.51 49.42 275.23 44.68 274.21 C 39.85 271.89 42.02 265.43 41.08 261.21 C 33.23 266.10 26.79 272.91 20.27 279.40 C 16.53 282.57 12.16 285.31 9.64 289.64 C 8.16 291.69 10.62 293.66 11.89 295.09 C 17.99 300.69 24.53 305.84 29.93 312.16 C 23.94 308.24 19.11 302.91 13.61 298.39 C 11.36 296.34 8.63 294.56 7.26 291.76 C 6.89 289.22 9.26 287.46 10.78 285.79 C 15.35 281.69 20.20 277.86 24.18 273.15 Z" />
</g>
<g id="#f5f5f5ff">
<path fill="#f5f5f5" opacity="1.00" d=" M 252.13 260.39 C 254.46 260.90 256.47 262.19 258.03 264.00 C 262.65 269.05 268.23 273.10 273.05 277.95 C 277.40 282.42 282.74 285.88 286.38 291.02 C 280.60 297.08 274.24 302.56 268.04 308.18 C 266.47 308.37 264.91 308.57 263.35 308.77 C 263.81 306.87 264.27 304.98 264.74 303.10 C 261.61 300.98 258.25 299.12 255.55 296.45 C 250.70 291.51 249.67 284.13 244.79 279.20 C 246.27 277.94 247.76 276.67 249.15 275.30 C 249.48 274.84 250.15 273.93 250.48 273.48 C 252.15 269.32 251.55 264.74 252.13 260.39 Z" />
</g>
<g id="#ebececff">
<path fill="#ebecec" opacity="1.00" d=" M 20.27 279.40 C 26.79 272.91 33.23 266.10 41.08 261.21 C 42.02 265.43 39.85 271.89 44.68 274.21 C 49.42 275.23 54.36 274.51 59.18 274.73 C 59.45 276.06 59.72 277.39 59.89 278.74 C 58.82 287.37 59.50 296.07 58.50 304.70 C 54.34 304.54 50.21 303.91 46.20 302.78 C 47.38 301.82 48.57 300.87 49.77 299.93 C 45.46 298.80 40.98 297.50 37.73 294.27 C 33.94 291.07 31.72 286.54 29.97 281.99 C 29.30 280.86 29.05 279.14 27.76 278.58 C 25.27 278.89 22.78 280.53 20.27 279.40 Z" />
</g>
<g id="#adaeaeff">
<path fill="#adaeae" opacity="1.00" d=" M 233.88 273.97 C 239.42 274.11 244.96 274.05 250.48 273.48 C 250.15 273.93 249.48 274.84 249.15 275.30 C 244.22 275.13 239.29 275.20 234.37 275.52 C 233.00 282.27 233.79 289.17 233.56 296.00 C 233.65 298.80 233.34 301.78 234.49 304.41 C 236.15 306.81 239.48 306.14 241.99 306.36 C 245.31 306.52 250.06 305.62 251.63 309.51 C 252.70 313.06 252.46 316.85 252.85 320.51 C 255.67 318.77 258.47 316.99 261.21 315.13 L 260.74 315.89 C 259.60 317.95 257.85 319.59 255.94 320.92 C 254.56 321.43 253.16 321.87 251.77 322.33 C 251.23 318.38 251.33 314.35 250.58 310.43 C 250.30 309.15 249.01 308.45 247.80 308.42 C 243.41 307.90 238.96 308.20 234.57 308.57 C 233.26 306.90 231.00 305.49 231.40 303.07 C 231.38 294.69 231.34 286.31 231.41 277.94 C 231.22 276.21 232.20 274.51 233.88 273.97 Z" />
</g>
<g id="#e7e7e8ff">
<path fill="#e7e7e8" opacity="1.00" d=" M 234.37 275.52 C 239.29 275.20 244.22 275.13 249.15 275.30 C 247.76 276.67 246.27 277.94 244.79 279.20 C 249.67 284.13 250.70 291.51 255.55 296.45 C 258.25 299.12 261.61 300.98 264.74 303.10 C 264.27 304.98 263.81 306.87 263.35 308.77 C 264.91 308.57 266.47 308.37 268.04 308.18 C 265.58 310.31 263.20 312.55 261.21 315.13 C 258.47 316.99 255.67 318.77 252.85 320.51 C 252.46 316.85 252.70 313.06 251.63 309.51 C 250.06 305.62 245.31 306.52 241.99 306.36 C 239.48 306.14 236.15 306.81 234.49 304.41 C 233.34 301.78 233.65 298.80 233.56 296.00 C 233.79 289.17 233.00 282.27 234.37 275.52 Z" />
</g>
<g id="#d9dadbff">
<path fill="#d9dadb" opacity="1.00" d=" M 20.27 279.40 C 22.78 280.53 25.27 278.89 27.76 278.58 C 29.05 279.14 29.30 280.86 29.97 281.99 C 31.72 286.54 33.94 291.07 37.73 294.27 C 40.98 297.50 45.46 298.80 49.77 299.93 C 48.57 300.87 47.38 301.82 46.20 302.78 C 50.21 303.91 54.34 304.54 58.50 304.70 C 59.50 296.07 58.82 287.37 59.89 278.74 C 60.62 284.81 60.08 290.92 60.18 297.01 C 60.27 300.34 59.75 303.63 58.97 306.86 C 53.92 307.23 48.68 306.44 43.77 307.81 C 39.99 310.65 41.91 316.14 41.49 320.18 C 39.26 319.23 37.04 318.25 34.93 317.06 C 33.29 315.40 31.65 313.74 29.93 312.16 C 24.53 305.84 17.99 300.69 11.89 295.09 C 10.62 293.66 8.16 291.69 9.64 289.64 C 12.16 285.31 16.53 282.57 20.27 279.40 Z" />
</g>
<g id="#5d5d5eff">
<path fill="#5d5d5e" opacity="1.00" d=" M 234.57 308.57 C 238.96 308.20 243.41 307.90 247.80 308.42 C 249.01 308.45 250.30 309.15 250.58 310.43 C 251.33 314.35 251.23 318.38 251.77 322.33 C 253.16 321.87 254.56 321.43 255.94 320.92 C 255.31 324.22 252.09 324.57 249.34 323.79 C 249.09 319.03 249.61 314.20 248.57 309.51 C 243.90 309.25 239.09 310.10 234.57 308.57 Z" />
</g>
<g id="#00000048">
<path fill="#000000" opacity="0.28" d=" M 220.20 365.70 C 224.92 367.47 229.88 368.83 234.97 368.67 C 245.64 368.59 256.32 368.67 267.00 368.57 C 271.72 368.50 276.49 369.15 280.89 370.91 C 284.20 373.58 287.60 376.37 289.66 380.17 C 290.71 382.23 292.20 384.01 294.00 385.46 L 294.00 390.00 L 291.29 390.00 C 290.30 386.14 290.12 381.79 287.38 378.64 C 282.66 373.02 275.40 369.60 268.04 369.77 C 256.01 369.81 243.97 369.86 231.94 369.87 C 227.64 370.03 223.24 368.90 220.20 365.70 Z" />
</g>
</svg>
