<?xml version="1.0" encoding="UTF-8" ?>
<!DOCTYPE svg PUBLIC "-//W3C//DTD SVG 1.1//EN" "http://www.w3.org/Graphics/SVG/1.1/DTD/svg11.dtd">
<svg width="490pt" height="650pt" viewBox="0 0 490 650" version="1.1" xmlns="http://www.w3.org/2000/svg">
<g id="#0000003f">
<path fill="#000000" opacity="0.25" d=" M 0.00 0.00 L 6.25 0.00 C 6.23 2.00 6.21 3.99 6.19 5.99 C 4.13 6.06 2.06 6.13 0.00 6.21 L 0.00 0.00 Z" />
<path fill="#000000" opacity="0.25" d=" M 138.57 0.00 L 156.83 0.00 C 159.34 2.54 161.80 5.18 164.85 7.10 C 172.70 12.05 179.60 19.05 183.07 27.77 C 187.11 39.09 184.55 51.26 185.74 62.93 C 188.20 73.76 194.69 84.08 204.46 89.71 C 209.68 93.08 215.66 95.43 221.96 95.35 C 239.74 95.61 257.53 95.32 275.32 95.38 C 270.33 97.03 265.32 98.88 260.01 99.14 C 252.35 99.58 244.67 99.14 237.00 99.35 C 227.50 99.60 218.06 97.78 209.00 95.04 C 196.75 90.93 188.38 79.64 184.12 67.89 C 181.19 58.16 183.37 47.88 182.76 37.92 C 182.62 29.92 178.01 22.88 172.99 16.99 C 169.84 13.54 166.54 9.95 162.21 7.99 C 156.78 5.93 150.82 6.67 145.21 5.48 C 142.11 5.07 140.60 1.98 138.57 0.00 Z" />
<path fill="#000000" opacity="0.25" d=" M 327.95 0.00 L 350.59 0.00 C 348.76 1.85 347.68 5.06 344.77 5.40 C 338.55 6.48 331.92 5.55 326.02 8.19 C 317.17 12.23 310.98 20.56 307.68 29.50 C 304.63 41.39 309.08 54.10 304.83 65.81 C 302.85 71.16 300.73 76.58 297.23 81.15 C 292.10 87.67 285.51 93.91 276.90 94.98 C 284.74 90.08 292.72 84.69 297.53 76.55 C 303.68 66.15 303.82 53.67 303.39 41.95 C 302.66 29.29 309.04 16.64 319.40 9.42 C 322.90 6.93 325.44 3.43 327.95 0.00 Z" />
<path fill="#000000" opacity="0.25" d=" M 146.53 549.30 C 157.71 548.94 168.82 550.78 180.00 550.44 C 222.67 550.37 265.34 550.37 308.00 550.44 C 318.12 550.75 328.18 549.31 338.29 549.19 C 337.67 552.37 338.01 556.16 335.77 558.75 C 331.11 561.89 324.98 561.93 320.47 565.41 C 314.74 569.76 310.07 575.69 307.49 582.43 C 303.32 595.40 308.54 609.60 303.55 622.42 C 301.15 628.83 298.24 635.35 293.08 640.06 C 289.37 643.44 285.57 646.72 281.77 650.00 L 271.99 650.00 C 276.83 644.78 284.21 643.23 289.18 638.20 C 294.55 632.92 298.73 626.16 300.20 618.71 C 301.46 609.64 299.75 600.42 301.02 591.35 C 302.84 582.92 305.73 574.23 312.02 568.02 C 316.16 563.70 321.30 560.53 325.74 556.55 C 322.63 555.42 319.40 554.46 316.07 554.52 C 271.04 554.65 226.02 554.54 180.99 554.58 C 173.96 554.72 166.58 553.46 159.97 556.60 C 164.58 559.45 169.61 561.71 173.73 565.29 C 180.26 571.03 184.72 579.10 186.01 587.72 C 187.43 597.08 185.83 606.60 186.91 615.98 C 189.19 627.60 196.64 638.23 206.99 644.05 C 210.16 645.85 213.15 647.95 216.16 650.00 L 205.46 650.00 C 202.45 646.86 199.53 643.63 196.35 640.66 C 190.85 635.54 186.88 628.92 184.31 621.91 C 181.16 610.40 185.31 598.20 182.17 586.69 C 179.49 578.65 175.44 570.59 168.43 565.49 C 162.90 561.29 155.23 561.60 149.79 557.24 C 147.42 555.32 147.30 552.01 146.53 549.30 Z" />
<path fill="#000000" opacity="0.25" d=" M 345.30 581.40 C 343.99 576.50 343.32 571.22 345.32 566.41 C 346.12 571.37 346.01 576.43 345.30 581.40 Z" />
<path fill="#000000" opacity="0.25" d=" M 0.00 643.76 C 1.96 643.88 3.92 644.01 5.88 644.15 C 5.87 646.09 5.87 648.04 5.87 650.00 L 0.00 650.00 L 0.00 643.76 Z" />
</g>
<g id="#000000ff">
<path fill="#000000" opacity="1.00" d=" M 156.83 0.00 L 327.95 0.00 C 325.44 3.43 322.90 6.93 319.40 9.42 C 309.04 16.64 302.66 29.29 303.39 41.95 C 303.82 53.67 303.68 66.15 297.53 76.55 C 292.72 84.69 284.74 90.08 276.90 94.98 C 276.50 95.08 275.71 95.28 275.32 95.38 C 257.53 95.32 239.74 95.61 221.96 95.35 C 215.66 95.43 209.68 93.08 204.46 89.71 C 194.69 84.08 188.20 73.76 185.74 62.93 C 184.55 51.26 187.11 39.09 183.07 27.77 C 179.60 19.05 172.70 12.05 164.85 7.10 C 161.80 5.18 159.34 2.54 156.83 0.00 M 217.78 29.36 C 221.13 34.99 227.93 37.91 230.55 44.03 C 230.49 44.47 230.35 45.35 230.29 45.80 C 226.68 51.20 219.69 54.07 217.77 60.66 C 216.72 63.81 219.17 66.66 221.41 68.56 C 223.62 70.53 226.74 70.46 229.51 70.80 C 233.50 65.20 238.52 60.45 244.06 56.40 C 248.46 60.17 252.24 64.58 256.42 68.57 C 259.07 71.45 263.93 71.37 266.65 68.64 C 268.78 66.71 271.74 63.85 270.17 60.71 C 267.35 55.46 262.40 51.88 258.53 47.46 C 257.81 46.43 256.55 45.47 256.66 44.09 C 260.11 38.19 266.51 34.98 270.76 29.81 C 272.94 26.75 269.71 23.45 267.73 21.26 C 265.11 17.94 260.00 17.26 256.58 19.70 C 252.12 22.90 249.17 27.79 244.61 30.85 C 243.41 32.00 242.07 30.64 241.11 29.94 C 236.28 26.20 233.15 20.37 227.57 17.62 C 221.72 17.14 215.85 23.54 217.78 29.36 Z" />
<path fill="#000000" opacity="1.00" d=" M 159.97 556.60 C 166.58 553.46 173.96 554.72 180.99 554.58 C 226.02 554.54 271.04 554.65 316.07 554.52 C 319.40 554.46 322.63 555.42 325.74 556.55 C 321.30 560.53 316.16 563.70 312.02 568.02 C 305.73 574.23 302.84 582.92 301.02 591.35 C 299.75 600.42 301.46 609.64 300.20 618.71 C 298.73 626.16 294.55 632.92 289.18 638.20 C 284.21 643.23 276.83 644.78 271.99 650.00 L 216.16 650.00 C 213.15 647.95 210.16 645.85 206.99 644.05 C 196.64 638.23 189.19 627.60 186.91 615.98 C 185.83 606.60 187.43 597.08 186.01 587.72 C 184.72 579.10 180.26 571.03 173.73 565.29 C 169.61 561.71 164.58 559.45 159.97 556.60 M 250.79 579.79 C 248.54 582.00 246.42 585.19 243.05 585.52 C 237.16 582.86 234.43 576.37 229.24 572.82 C 222.00 570.20 214.38 579.20 218.23 585.89 C 221.89 590.83 226.91 594.55 230.94 599.17 C 227.40 605.07 220.54 608.30 217.78 614.70 C 215.13 621.22 223.37 627.83 229.39 625.34 C 235.07 620.94 238.13 613.38 245.27 610.85 C 249.51 615.53 253.56 620.46 258.43 624.50 C 260.87 626.67 264.54 625.79 266.75 623.74 C 269.14 621.69 272.29 618.95 271.40 615.43 C 269.14 608.24 261.07 605.19 257.62 598.97 C 260.64 592.86 266.83 588.96 271.87 584.56 C 272.17 578.89 268.71 572.92 263.02 571.54 C 257.73 571.75 254.10 576.20 250.79 579.79 Z" />
</g>
<g id="#3c3c3cff">
<path fill="#3c3c3c" opacity="1.00" d=" M 217.78 29.36 C 215.85 23.54 221.72 17.14 227.57 17.62 C 233.15 20.37 236.28 26.20 241.11 29.94 C 242.07 30.64 243.41 32.00 244.61 30.85 C 249.17 27.79 252.12 22.90 256.58 19.70 C 260.00 17.26 265.11 17.94 267.73 21.26 C 269.71 23.45 272.94 26.75 270.76 29.81 C 266.51 34.98 260.11 38.19 256.66 44.09 C 256.55 45.47 257.81 46.43 258.53 47.46 C 262.40 51.88 267.35 55.46 270.17 60.71 C 271.74 63.85 268.78 66.71 266.65 68.64 C 263.93 71.37 259.07 71.45 256.42 68.57 C 252.24 64.58 248.46 60.17 244.06 56.40 C 238.52 60.45 233.50 65.20 229.51 70.80 C 226.74 70.46 223.62 70.53 221.41 68.56 C 219.17 66.66 216.72 63.81 217.77 60.66 C 219.69 54.07 226.68 51.20 230.29 45.80 C 230.35 45.35 230.49 44.47 230.55 44.03 C 227.93 37.91 221.13 34.99 217.78 29.36 M 221.53 26.08 C 224.00 32.88 231.10 36.23 234.94 42.07 C 236.18 44.01 235.49 46.54 234.23 48.28 C 230.75 53.21 225.07 56.38 222.56 62.03 C 223.52 63.16 224.59 64.39 226.11 64.71 C 232.04 62.23 235.77 56.61 241.05 53.18 C 242.71 51.99 244.85 52.80 246.53 53.51 C 252.33 56.23 255.19 62.73 260.98 65.47 C 262.75 64.67 264.25 63.41 265.79 62.25 C 262.70 57.74 258.72 54.00 255.10 49.96 C 253.36 47.67 251.41 44.13 253.48 41.48 C 257.38 36.20 263.32 32.93 267.46 27.88 C 267.59 24.15 263.01 19.78 259.39 22.13 C 254.74 25.17 251.98 30.19 247.92 33.87 C 245.93 35.74 243.01 35.42 240.51 35.77 C 236.41 30.13 231.51 25.10 225.85 21.04 C 224.33 22.65 222.74 24.22 221.53 26.08 Z" />
<path fill="#3c3c3c" opacity="1.00" d=" M 250.79 579.79 C 254.10 576.20 257.73 571.75 263.02 571.54 C 268.71 572.92 272.17 578.89 271.87 584.56 C 266.83 588.96 260.64 592.86 257.62 598.97 C 261.07 605.19 269.14 608.24 271.40 615.43 C 272.29 618.95 269.14 621.69 266.75 623.74 C 264.54 625.79 260.87 626.67 258.43 624.50 C 253.56 620.46 249.51 615.53 245.27 610.85 C 238.13 613.38 235.07 620.94 229.39 625.34 C 223.37 627.83 215.13 621.22 217.78 614.70 C 220.54 608.30 227.40 605.07 230.94 599.17 C 226.91 594.55 221.89 590.83 218.23 585.89 C 214.38 579.20 222.00 570.20 229.24 572.82 C 234.43 576.37 237.16 582.86 243.05 585.52 C 246.42 585.19 248.54 582.00 250.79 579.79 M 247.05 588.14 C 245.71 589.54 243.65 589.49 241.90 589.95 C 237.54 585.41 232.85 581.18 228.78 576.37 C 226.52 576.57 223.50 575.72 222.08 578.05 C 220.87 579.56 219.73 581.92 221.09 583.69 C 224.70 588.49 229.68 592.04 233.60 596.56 C 234.91 597.68 234.64 599.45 234.38 600.97 C 231.14 606.82 224.32 609.79 221.50 615.93 C 221.64 617.50 222.08 619.02 222.43 620.57 C 224.25 620.90 226.09 621.76 227.97 621.37 C 233.32 617.84 236.72 612.02 242.01 608.47 C 244.14 608.40 246.69 607.92 248.38 609.56 C 253.15 613.33 256.36 619.03 262.00 621.64 C 264.45 621.03 266.42 619.18 267.60 617.01 C 265.09 611.01 259.50 607.27 255.50 602.38 C 254.02 600.97 254.34 598.82 254.45 597.00 C 257.98 591.93 263.55 588.72 267.30 583.84 C 269.56 579.26 264.87 573.92 260.02 575.41 C 254.92 578.78 251.52 584.05 247.05 588.14 Z" />
</g>
<g id="#7d7d7eff">
<path fill="#7d7d7e" opacity="1.00" d=" M 221.53 26.08 C 222.74 24.22 224.33 22.65 225.85 21.04 C 231.51 25.10 236.41 30.13 240.51 35.77 C 243.01 35.42 245.93 35.74 247.92 33.87 C 251.98 30.19 254.74 25.17 259.39 22.13 C 263.01 19.78 267.59 24.15 267.46 27.88 C 263.32 32.93 257.38 36.20 253.48 41.48 C 251.41 44.13 253.36 47.67 255.10 49.96 C 258.72 54.00 262.70 57.74 265.79 62.25 C 264.25 63.41 262.75 64.67 260.98 65.47 C 255.19 62.73 252.33 56.23 246.53 53.51 C 244.85 52.80 242.71 51.99 241.05 53.18 C 235.77 56.61 232.04 62.23 226.11 64.71 C 224.59 64.39 223.52 63.16 222.56 62.03 C 225.07 56.38 230.75 53.21 234.23 48.28 C 235.49 46.54 236.18 44.01 234.94 42.07 C 231.10 36.23 224.00 32.88 221.53 26.08 Z" />
</g>
<g id="#cccdceff">
<path fill="#cccdce" opacity="1.00" d=" M 247.05 588.14 C 251.52 584.05 254.92 578.78 260.02 575.41 C 264.87 573.92 269.56 579.26 267.30 583.84 C 263.55 588.72 257.98 591.93 254.45 597.00 C 254.34 598.82 254.02 600.97 255.50 602.38 C 259.50 607.27 265.09 611.01 267.60 617.01 C 266.42 619.18 264.45 621.03 262.00 621.64 C 256.36 619.03 253.15 613.33 248.38 609.56 C 246.69 607.92 244.14 608.40 242.01 608.47 C 236.72 612.02 233.32 617.84 227.97 621.37 C 226.09 621.76 224.25 620.90 222.43 620.57 C 222.08 619.02 221.64 617.50 221.50 615.93 C 224.32 609.79 231.14 606.82 234.38 600.97 C 234.64 599.45 234.91 597.68 233.60 596.56 C 229.68 592.04 224.70 588.49 221.09 583.69 C 219.73 581.92 220.87 579.56 222.08 578.05 C 223.50 575.72 226.52 576.57 228.78 576.37 C 232.85 581.18 237.54 585.41 241.90 589.95 C 243.65 589.49 245.71 589.54 247.05 588.14 Z" />
</g>
</svg>
