<?xml version="1.0" encoding="UTF-8" ?>
<!DOCTYPE svg PUBLIC "-//W3C//DTD SVG 1.1//EN" "http://www.w3.org/Graphics/SVG/1.1/DTD/svg11.dtd">
<svg width="490pt" height="650pt" viewBox="0 0 490 650" version="1.1" xmlns="http://www.w3.org/2000/svg">
<g id="#0000005b">
<path fill="#000000" opacity="0.36" d=" M 0.00 0.00 L 4.64 0.00 C 6.36 5.75 7.16 12.11 11.25 16.80 C 17.32 23.84 25.85 29.45 35.42 29.58 C 51.60 30.04 67.81 29.59 84.00 29.76 C 91.91 29.96 99.90 29.01 107.74 30.41 C 123.90 33.95 138.01 46.33 142.99 62.21 C 146.17 71.12 145.18 80.72 145.25 90.00 C 145.27 139.67 145.22 189.33 145.28 239.00 C 145.55 247.63 145.58 256.59 141.95 264.62 C 136.82 278.62 124.15 290.92 108.77 291.93 L 107.82 291.86 C 115.95 289.00 124.37 285.81 130.57 279.57 C 138.38 271.90 141.94 260.81 142.08 250.04 C 142.38 223.69 141.58 197.35 142.02 171.00 C 142.36 157.33 141.79 143.67 141.91 130.00 C 142.28 116.67 142.01 103.33 141.92 90.00 C 142.02 78.11 143.28 65.33 137.58 54.41 C 131.88 44.50 122.37 36.22 110.95 33.93 C 105.05 32.69 98.99 32.79 93.00 32.86 C 77.33 33.24 61.66 32.92 45.99 33.17 C 34.68 33.40 22.86 30.40 14.33 22.66 C 8.18 17.63 6.23 9.30 0.00 4.31 L 0.00 0.00 Z" />
<path fill="#000000" opacity="0.36" d=" M 485.35 0.00 L 490.00 0.00 L 490.00 4.35 C 483.57 9.46 481.64 18.10 475.19 23.16 C 466.46 30.89 454.39 33.46 443.00 33.16 C 428.34 32.69 413.67 32.99 399.00 32.97 C 388.80 32.64 377.88 32.42 368.78 37.77 C 359.19 43.54 351.04 52.88 349.05 64.16 C 347.34 73.00 348.01 82.05 348.09 91.00 C 347.59 116.33 348.37 141.67 347.92 167.00 C 347.76 176.00 348.26 185.00 348.08 194.00 C 347.70 210.00 348.07 226.00 347.87 241.99 C 347.82 249.84 347.74 257.95 350.68 265.36 C 355.10 276.46 364.69 285.14 375.89 289.11 C 381.06 290.87 386.61 290.75 392.00 290.77 C 409.33 290.62 426.66 290.82 444.00 290.63 C 454.85 290.49 466.37 292.92 474.74 300.25 C 481.18 305.28 483.55 313.69 490.00 318.74 L 490.00 323.62 C 487.21 320.75 484.53 317.69 482.94 313.97 C 478.95 304.69 470.45 297.15 460.39 295.34 C 450.12 292.67 439.47 293.84 429.00 293.69 C 416.99 293.64 404.98 293.67 392.97 293.74 C 383.98 293.82 374.82 291.83 367.09 287.14 C 356.17 280.81 348.90 269.51 345.73 257.49 C 344.07 250.44 344.83 243.16 344.75 236.00 C 344.75 187.00 344.75 138.00 344.75 89.00 C 344.75 79.80 343.89 70.25 347.30 61.48 C 351.84 47.87 363.01 36.74 376.63 32.23 C 385.63 28.50 395.53 29.93 405.00 29.76 C 421.24 29.62 437.48 29.97 453.71 29.63 C 463.77 29.61 473.10 24.04 479.20 16.29 C 482.92 11.62 483.68 5.54 485.35 0.00 Z" />
</g>
<g id="#0000003b">
<path fill="#000000" opacity="0.23" d=" M 139.31 0.00 L 154.39 0.00 C 156.95 2.43 159.63 4.83 162.94 6.18 C 170.54 9.32 176.06 15.86 180.34 22.65 C 183.35 27.46 184.68 33.07 185.23 38.66 C 184.59 47.63 183.52 56.78 185.24 65.69 C 188.27 77.04 196.11 87.14 206.53 92.63 C 212.24 95.67 218.84 96.17 225.18 96.53 C 235.45 96.81 245.74 96.53 256.01 96.68 C 261.77 96.80 267.52 96.25 273.19 95.26 C 281.83 94.48 288.66 88.35 294.35 82.31 C 298.69 77.80 301.41 72.03 303.05 66.05 C 306.89 53.69 301.89 40.18 307.06 28.08 C 305.41 41.79 309.34 56.29 303.59 69.36 C 299.63 81.41 290.20 91.99 277.90 95.76 C 269.19 98.33 260.09 99.69 250.99 99.41 C 241.24 99.08 231.39 100.15 221.74 98.31 C 215.25 97.05 208.50 95.87 202.85 92.22 C 193.86 86.46 187.15 77.39 183.81 67.28 C 180.86 56.23 184.25 44.67 182.08 33.52 C 179.75 23.51 172.40 15.63 164.53 9.47 C 158.56 5.09 150.68 7.07 143.97 5.00 C 142.03 3.78 140.89 1.62 139.31 0.00 Z" />
</g>
<g id="#0000009c">
<path fill="#000000" opacity="0.61" d=" M 154.39 0.00 L 162.62 0.00 C 162.72 2.06 162.83 4.12 162.94 6.18 C 159.63 4.83 156.95 2.43 154.39 0.00 Z" />
</g>
<g id="#000000ff">
<path fill="#000000" opacity="1.00" d=" M 162.62 0.00 L 326.33 0.00 C 323.96 3.97 321.23 7.78 317.35 10.40 C 310.61 15.24 305.64 22.35 303.33 30.32 C 298.82 43.69 304.45 58.46 298.60 71.55 C 293.66 83.27 282.51 90.80 271.01 95.21 C 259.01 94.66 247.00 94.94 235.00 94.90 C 228.54 94.82 221.99 95.55 215.61 94.27 C 198.75 89.57 184.76 72.99 186.21 55.00 C 186.39 49.54 186.03 44.07 185.23 38.66 C 184.68 33.07 183.35 27.46 180.34 22.65 C 176.06 15.86 170.54 9.32 162.94 6.18 C 162.83 4.12 162.72 2.06 162.62 0.00 M 217.68 29.40 C 220.95 35.09 227.74 37.97 230.44 44.05 C 230.16 47.39 226.74 49.30 224.60 51.55 C 221.19 54.64 216.77 58.48 217.61 63.60 C 219.17 67.95 223.87 71.67 228.66 70.59 C 231.06 69.49 232.54 67.15 234.32 65.29 C 237.11 61.95 240.53 59.23 244.04 56.70 C 247.51 59.64 250.72 62.87 253.78 66.22 C 255.81 68.22 257.95 70.76 261.04 70.83 C 264.43 71.15 267.22 68.70 269.18 66.22 C 270.44 64.71 271.30 62.53 270.26 60.67 C 267.05 54.41 260.59 50.73 256.85 44.87 C 259.32 38.05 267.30 35.18 271.21 29.26 C 272.57 26.17 269.73 23.30 267.83 21.17 C 265.56 18.48 261.77 17.32 258.44 18.61 C 252.22 21.33 249.43 28.60 243.14 31.19 C 237.13 27.62 233.97 20.53 227.60 17.54 C 221.63 16.99 215.69 23.49 217.68 29.40 Z" />
<path fill="#000000" opacity="1.00" d=" M 0.00 8.68 C 3.49 12.03 6.67 15.66 9.43 19.63 C 14.37 26.38 22.09 30.30 29.61 33.48 C 36.34 36.44 43.83 35.92 51.00 35.86 C 68.00 35.72 85.00 35.93 102.00 35.73 C 107.38 35.79 113.06 35.67 118.02 38.07 C 122.89 40.57 126.99 44.32 130.71 48.30 C 134.25 52.24 137.74 56.69 138.56 62.09 C 139.66 69.00 139.11 76.03 139.19 83.00 C 139.19 136.67 139.15 190.33 139.21 244.00 C 139.12 251.40 140.02 259.19 137.11 266.20 C 132.87 275.44 124.52 282.24 115.43 286.41 C 108.72 289.51 101.16 288.63 94.00 288.68 C 75.98 288.62 57.97 288.66 39.96 288.61 C 31.26 288.49 23.02 292.09 16.01 296.99 C 8.78 301.74 6.52 310.79 0.00 316.29 L 0.00 8.68 M 68.40 106.41 C 66.18 107.34 64.45 109.09 62.66 110.65 C 56.94 115.94 50.91 120.88 45.24 126.23 C 35.94 135.61 26.05 144.38 16.60 153.60 C 14.94 155.29 13.26 157.01 12.00 159.04 C 11.25 160.37 10.13 162.06 11.46 163.43 C 15.11 169.05 20.82 172.84 25.62 177.39 C 33.08 184.63 41.48 190.79 48.84 198.14 C 55.10 203.21 60.14 209.70 66.82 214.23 C 68.96 216.14 72.82 215.35 73.36 212.34 C 74.26 206.39 72.76 200.35 73.60 194.40 C 73.78 192.03 76.39 191.02 78.40 190.65 C 84.79 189.74 91.24 191.23 97.63 190.52 C 101.01 190.09 103.00 186.72 103.64 183.66 C 104.95 177.52 104.20 171.21 104.33 165.00 C 104.17 156.39 105.06 147.79 104.62 139.19 C 104.54 135.66 102.62 131.88 98.97 130.95 C 92.55 129.37 85.88 130.95 79.36 130.39 C 77.64 130.27 75.89 129.62 74.77 128.25 C 73.57 122.24 75.72 115.99 74.06 110.02 C 73.46 107.56 70.99 105.53 68.40 106.41 Z" />
<path fill="#000000" opacity="1.00" d=" M 472.84 26.96 C 480.01 22.35 483.65 14.25 490.00 8.74 L 490.00 315.38 C 485.03 311.07 481.96 305.20 477.67 300.33 C 469.72 292.95 458.93 288.51 448.04 288.62 C 430.69 288.66 413.35 288.63 396.00 288.68 C 389.27 288.63 382.29 289.40 375.82 287.10 C 366.76 283.78 359.10 277.08 354.17 268.84 C 349.75 261.36 350.89 252.31 350.79 244.00 C 350.85 185.66 350.80 127.32 350.81 68.98 C 350.76 62.96 352.14 56.76 356.14 52.07 C 362.55 44.11 370.95 35.75 381.94 35.86 C 399.62 35.67 417.31 35.90 435.00 35.82 C 442.99 35.68 451.31 36.84 458.99 34.03 C 463.87 32.25 468.54 29.88 472.84 26.96 M 416.92 109.14 C 415.60 115.55 417.25 122.17 416.28 128.62 C 415.88 130.75 413.73 132.01 411.72 132.27 C 404.92 133.09 398.00 131.60 391.24 132.84 C 387.18 133.69 386.18 138.41 386.32 141.95 C 386.49 154.65 386.40 167.35 386.39 180.04 C 386.28 183.99 387.62 189.10 392.09 190.01 C 399.73 191.38 407.64 189.34 415.24 191.00 C 417.55 191.46 417.47 194.09 417.51 195.93 C 417.53 202.11 417.34 208.31 417.89 214.48 C 419.93 214.17 422.34 214.55 424.00 213.03 C 431.90 206.56 438.32 198.52 446.20 192.02 C 449.80 190.66 451.57 186.82 454.94 185.06 C 459.60 182.51 463.49 178.84 466.61 174.57 C 470.78 171.38 475.30 168.33 478.16 163.82 C 479.77 160.04 477.40 156.07 474.75 153.44 C 472.18 151.93 469.38 150.72 467.04 148.83 C 463.05 145.53 459.95 141.31 455.92 138.06 C 450.62 133.79 446.65 127.90 440.47 124.76 C 438.23 120.64 434.49 117.80 430.93 114.91 C 428.10 112.67 426.08 109.46 422.92 107.67 C 420.88 107.41 417.78 106.60 416.92 109.14 Z" />
<path fill="#000000" opacity="1.00" d=" M 0.00 331.69 C 6.15 337.14 9.23 345.32 16.18 349.93 C 26.19 357.07 38.89 359.57 51.01 359.23 C 66.34 358.93 81.67 359.45 97.00 358.92 C 105.73 358.62 114.84 359.87 122.36 364.60 C 131.69 370.49 139.61 380.42 139.18 391.98 C 139.20 431.65 139.17 471.33 139.18 511.00 C 139.05 533.68 139.50 556.36 139.07 579.03 C 139.06 588.42 133.58 596.77 126.82 602.86 C 121.66 607.46 114.87 609.46 108.43 611.55 C 100.53 614.05 92.15 613.11 84.00 613.18 C 67.64 613.21 51.28 613.15 34.92 613.16 C 28.71 613.05 22.93 615.70 17.81 618.99 C 10.42 623.29 6.94 631.68 0.00 636.57 L 0.00 331.69 M 67.48 428.65 C 64.15 429.99 61.80 432.85 59.32 435.32 C 54.86 440.20 49.64 444.29 45.01 448.99 C 41.16 452.87 36.31 455.57 32.45 459.44 C 25.41 466.74 17.07 472.67 10.20 480.14 C 7.79 482.80 7.90 487.18 10.15 489.91 C 13.16 493.58 17.27 496.10 20.81 499.22 C 30.28 508.08 39.90 516.79 49.77 525.22 C 55.08 530.19 60.02 535.64 65.91 539.93 C 68.64 541.21 72.88 541.52 75.07 539.16 C 76.72 532.00 74.28 524.45 76.33 517.37 C 84.11 515.21 92.35 517.89 100.15 515.92 C 104.58 514.43 105.79 509.22 105.71 505.07 C 105.63 491.03 105.70 476.98 105.75 462.94 C 105.64 459.77 105.96 455.14 102.05 454.12 C 94.23 452.13 86.05 454.29 78.13 453.11 C 75.65 452.90 75.69 449.90 75.60 448.05 C 75.61 441.86 75.90 435.67 75.45 429.48 C 72.83 429.03 70.14 428.08 67.48 428.65 Z" />
<path fill="#000000" opacity="1.00" d=" M 472.98 351.03 C 480.25 346.48 483.56 338.11 490.00 332.67 L 490.00 639.34 C 487.05 636.13 484.29 632.74 481.87 629.12 C 477.75 623.07 471.34 619.17 464.99 615.84 C 460.10 613.21 454.42 613.03 449.01 613.10 C 431.01 613.32 413.00 613.04 395.00 613.28 C 382.11 613.38 368.40 609.26 359.53 599.48 C 356.12 595.83 352.83 591.71 351.74 586.72 C 350.79 582.21 350.81 577.58 350.78 573.00 C 350.78 513.33 350.89 453.65 350.77 393.98 C 350.88 388.89 351.43 383.58 354.12 379.13 C 357.37 373.60 361.85 368.82 366.99 364.99 C 374.15 359.75 383.39 358.76 392.00 358.90 C 406.66 359.43 421.33 358.97 436.00 359.20 C 448.62 359.41 462.23 358.32 472.98 351.03 M 418.45 428.59 C 416.96 429.01 415.14 429.85 414.72 431.48 C 413.44 438.48 415.68 445.78 413.68 452.67 C 405.69 454.93 397.13 451.95 389.16 454.30 C 384.68 455.69 383.23 460.75 383.42 464.97 C 383.51 478.31 383.41 491.66 383.47 505.01 C 383.30 510.79 388.25 516.29 394.07 516.49 C 400.02 516.91 406.00 516.02 411.93 516.76 C 413.62 516.73 414.23 518.64 414.36 520.02 C 415.01 526.09 413.69 532.27 414.88 538.30 C 415.48 540.50 418.15 540.68 420.04 540.76 C 424.64 541.29 427.03 536.65 430.11 534.13 C 436.77 528.46 442.83 522.14 449.49 516.47 C 455.28 510.91 461.63 505.98 467.36 500.36 C 471.11 496.72 475.66 494.02 479.37 490.35 C 482.12 487.79 482.39 482.96 479.78 480.22 C 474.41 474.56 468.34 469.62 462.35 464.64 C 451.18 454.14 439.53 444.17 428.51 433.52 C 425.67 431.17 422.53 427.70 418.45 428.59 Z" />
<path fill="#000000" opacity="1.00" d=" M 169.61 558.16 C 178.37 556.83 187.20 558.04 196.00 557.81 C 230.33 557.73 264.67 557.78 299.00 557.79 C 305.83 557.61 312.72 557.10 319.50 558.27 C 314.13 563.91 307.25 568.42 303.83 575.65 C 300.85 582.04 298.08 588.79 297.90 595.95 C 297.61 605.03 298.18 614.12 298.15 623.20 C 295.32 631.91 288.74 639.37 280.45 643.29 C 276.99 644.94 273.95 647.29 271.26 650.00 L 218.61 650.00 C 215.38 647.54 212.07 645.16 208.42 643.36 C 200.93 639.65 194.92 633.13 191.50 625.54 C 187.39 616.25 190.22 605.89 188.71 596.15 C 187.40 588.00 186.42 579.35 181.66 572.36 C 179.11 568.41 175.70 565.02 171.64 562.64 C 170.93 561.15 170.27 559.65 169.61 558.16 M 259.40 573.27 C 254.08 576.52 250.90 582.21 245.97 585.93 C 244.58 586.95 242.43 587.07 241.12 585.87 C 236.54 582.33 233.32 577.34 228.77 573.78 C 222.88 571.87 216.04 578.98 218.92 584.78 C 222.26 590.24 228.93 593.04 231.46 599.02 C 229.18 605.67 221.93 608.99 218.63 615.05 C 217.40 618.99 220.59 622.43 223.74 624.28 C 225.38 625.27 227.78 626.12 229.28 624.39 C 234.20 619.86 238.02 613.97 244.04 610.72 C 251.22 613.16 254.18 621.49 261.09 624.49 C 263.93 625.25 266.19 622.82 268.02 621.04 C 269.34 619.48 271.28 617.33 270.15 615.17 C 266.80 608.80 259.78 605.37 256.42 599.00 C 259.47 592.31 266.88 589.04 270.58 582.92 C 271.12 577.55 265.04 570.28 259.40 573.27 Z" />
</g>
<g id="#0000009e">
<path fill="#000000" opacity="0.62" d=" M 326.33 0.00 L 334.57 0.00 C 329.34 5.25 322.18 7.88 316.95 13.10 C 312.73 17.38 309.63 22.69 307.06 28.08 C 301.89 40.18 306.89 53.69 303.05 66.05 C 301.41 72.03 298.69 77.80 294.35 82.31 C 288.66 88.35 281.83 94.48 273.19 95.26 C 272.64 95.24 271.55 95.22 271.01 95.21 C 282.51 90.80 293.66 83.27 298.60 71.55 C 304.45 58.46 298.82 43.69 303.33 30.32 C 305.64 22.35 310.61 15.24 317.35 10.40 C 321.23 7.78 323.96 3.97 326.33 0.00 Z" />
</g>
<g id="#00000037">
<path fill="#000000" opacity="0.22" d=" M 334.57 0.00 L 350.71 0.00 C 349.18 1.68 348.07 3.83 346.15 5.11 C 341.79 6.46 337.12 5.93 332.64 6.58 C 326.89 7.21 321.87 10.31 316.95 13.10 C 322.18 7.88 329.34 5.25 334.57 0.00 Z" />
</g>
<g id="#000000b5">
<path fill="#000000" opacity="0.71" d=" M 0.00 4.31 C 6.23 9.30 8.18 17.63 14.33 22.66 C 22.86 30.40 34.68 33.40 45.99 33.17 C 61.66 32.92 77.33 33.24 93.00 32.86 C 98.99 32.79 105.05 32.69 110.95 33.93 C 122.37 36.22 131.88 44.50 137.58 54.41 C 143.28 65.33 142.02 78.11 141.92 90.00 C 142.01 103.33 142.28 116.67 141.91 130.00 C 141.79 143.67 142.36 157.33 142.02 171.00 C 141.58 197.35 142.38 223.69 142.08 250.04 C 141.94 260.81 138.38 271.90 130.57 279.57 C 124.37 285.81 115.95 289.00 107.82 291.86 C 94.92 290.64 81.94 291.58 69.00 291.29 C 59.33 291.41 49.65 291.09 39.98 291.31 C 27.04 292.10 13.77 298.78 7.65 310.60 C 5.80 314.32 3.31 317.69 0.00 320.25 L 0.00 316.29 C 6.52 310.79 8.78 301.74 16.01 296.99 C 23.02 292.09 31.26 288.49 39.96 288.61 C 57.97 288.66 75.98 288.62 94.00 288.68 C 101.16 288.63 108.72 289.51 115.43 286.41 C 124.52 282.24 132.87 275.44 137.11 266.20 C 140.02 259.19 139.12 251.40 139.21 244.00 C 139.15 190.33 139.19 136.67 139.19 83.00 C 139.11 76.03 139.66 69.00 138.56 62.09 C 137.74 56.69 134.25 52.24 130.71 48.30 C 126.99 44.32 122.89 40.57 118.02 38.07 C 113.06 35.67 107.38 35.79 102.00 35.73 C 85.00 35.93 68.00 35.72 51.00 35.86 C 43.83 35.92 36.34 36.44 29.61 33.48 C 22.09 30.30 14.37 26.38 9.43 19.63 C 6.67 15.66 3.49 12.03 0.00 8.68 L 0.00 4.31 Z" />
<path fill="#000000" opacity="0.71" d=" M 475.19 23.16 C 481.64 18.10 483.57 9.46 490.00 4.35 L 490.00 8.74 C 483.65 14.25 480.01 22.35 472.84 26.96 C 468.54 29.88 463.87 32.25 458.99 34.03 C 451.31 36.84 442.99 35.68 435.00 35.82 C 417.31 35.90 399.62 35.67 381.94 35.86 C 370.95 35.75 362.55 44.11 356.14 52.07 C 352.14 56.76 350.76 62.96 350.81 68.98 C 350.80 127.32 350.85 185.66 350.79 244.00 C 350.89 252.31 349.75 261.36 354.17 268.84 C 359.10 277.08 366.76 283.78 375.82 287.10 C 382.29 289.40 389.27 288.63 396.00 288.68 C 413.35 288.63 430.69 288.66 448.04 288.62 C 458.93 288.51 469.72 292.95 477.67 300.33 C 481.96 305.20 485.03 311.07 490.00 315.38 L 490.00 318.74 C 483.55 313.69 481.18 305.28 474.74 300.25 C 466.37 292.92 454.85 290.49 444.00 290.63 C 426.66 290.82 409.33 290.62 392.00 290.77 C 386.61 290.75 381.06 290.87 375.89 289.11 C 364.69 285.14 355.10 276.46 350.68 265.36 C 347.74 257.95 347.82 249.84 347.87 241.99 C 348.07 226.00 347.70 210.00 348.08 194.00 C 348.26 185.00 347.76 176.00 347.92 167.00 C 348.37 141.67 347.59 116.33 348.09 91.00 C 348.01 82.05 347.34 73.00 349.05 64.16 C 351.04 52.88 359.19 43.54 368.78 37.77 C 377.88 32.42 388.80 32.64 399.00 32.97 C 413.67 32.99 428.34 32.69 443.00 33.16 C 454.39 33.46 466.46 30.89 475.19 23.16 Z" />
<path fill="#000000" opacity="0.71" d=" M 0.00 326.67 C 6.42 331.79 7.97 340.59 14.38 345.67 C 21.84 351.73 31.19 355.98 40.95 355.78 C 59.96 355.68 78.98 355.82 98.00 355.65 C 107.65 355.37 117.49 358.03 125.41 363.63 C 131.88 368.23 136.17 375.05 140.49 381.56 C 141.12 387.69 141.80 393.82 141.85 399.99 C 141.72 444.99 141.89 490.00 141.76 535.00 C 141.78 543.05 142.88 551.10 142.17 559.16 C 141.23 570.09 143.35 581.84 137.91 591.91 C 133.13 600.36 126.15 608.05 117.10 611.94 C 111.76 614.39 105.80 614.81 100.00 614.74 C 81.00 614.52 62.00 614.79 43.01 614.58 C 37.27 614.55 31.31 614.67 25.98 617.05 C 19.25 620.05 12.88 624.42 8.71 630.60 C 6.19 634.64 3.36 638.47 0.00 641.86 L 0.00 636.57 C 6.94 631.68 10.42 623.29 17.81 618.99 C 22.93 615.70 28.71 613.05 34.92 613.16 C 51.28 613.15 67.64 613.21 84.00 613.18 C 92.15 613.11 100.53 614.05 108.43 611.55 C 114.87 609.46 121.66 607.46 126.82 602.86 C 133.58 596.77 139.06 588.42 139.07 579.03 C 139.50 556.36 139.05 533.68 139.18 511.00 C 139.17 471.33 139.20 431.65 139.18 391.98 C 139.61 380.42 131.69 370.49 122.36 364.60 C 114.84 359.87 105.73 358.62 97.00 358.92 C 81.67 359.45 66.34 358.93 51.01 359.23 C 38.89 359.57 26.19 357.07 16.18 349.93 C 9.23 345.32 6.15 337.14 0.00 331.69 L 0.00 326.67 Z" />
<path fill="#000000" opacity="0.71" d=" M 475.00 347.02 C 481.58 342.12 483.73 333.59 490.00 328.37 L 490.00 332.67 C 483.56 338.11 480.25 346.48 472.98 351.03 C 462.23 358.32 448.62 359.41 436.00 359.20 C 421.33 358.97 406.66 359.43 392.00 358.90 C 383.39 358.76 374.15 359.75 366.99 364.99 C 361.85 368.82 357.37 373.60 354.12 379.13 C 351.43 383.58 350.88 388.89 350.77 393.98 C 350.89 453.65 350.78 513.33 350.78 573.00 C 350.81 577.58 350.79 582.21 351.74 586.72 C 352.83 591.71 356.12 595.83 359.53 599.48 C 368.40 609.26 382.11 613.38 395.00 613.28 C 413.00 613.04 431.01 613.32 449.01 613.10 C 454.42 613.03 460.10 613.21 464.99 615.84 C 471.34 619.17 477.75 623.07 481.87 629.12 C 484.29 632.74 487.05 636.13 490.00 639.34 L 490.00 643.36 C 487.96 641.20 485.77 639.21 483.81 636.99 C 482.73 632.99 480.34 629.53 477.21 626.87 C 470.14 618.94 459.72 614.10 449.00 614.73 C 430.33 614.93 411.66 614.70 392.99 614.90 C 383.37 615.29 373.80 612.38 365.64 607.37 C 359.79 603.32 355.04 597.71 351.67 591.47 C 346.93 581.66 348.71 570.50 347.91 560.01 C 347.23 552.34 348.07 544.67 348.23 537.00 C 348.17 495.00 348.22 453.00 348.21 411.00 C 348.26 404.13 347.77 397.21 348.63 390.37 C 350.12 379.04 357.37 368.98 366.87 362.87 C 374.11 358.57 382.57 356.36 391.00 356.50 C 410.02 356.65 429.05 356.57 448.08 356.61 C 457.83 356.66 467.48 353.23 475.00 347.02 Z" />
</g>
<g id="#2e2f2fff">
<path fill="#2e2f2f" opacity="1.00" d=" M 217.68 29.40 C 215.69 23.49 221.63 16.99 227.60 17.54 C 233.97 20.53 237.13 27.62 243.14 31.19 C 249.43 28.60 252.22 21.33 258.44 18.61 C 261.77 17.32 265.56 18.48 267.83 21.17 C 269.73 23.30 272.57 26.17 271.21 29.26 C 267.30 35.18 259.32 38.05 256.85 44.87 C 260.59 50.73 267.05 54.41 270.26 60.67 C 271.30 62.53 270.44 64.71 269.18 66.22 C 267.22 68.70 264.43 71.15 261.04 70.83 C 257.95 70.76 255.81 68.22 253.78 66.22 C 250.72 62.87 247.51 59.64 244.04 56.70 C 240.53 59.23 237.11 61.95 234.32 65.29 C 232.54 67.15 231.06 69.49 228.66 70.59 C 223.87 71.67 219.17 67.95 217.61 63.60 C 216.77 58.48 221.19 54.64 224.60 51.55 C 226.74 49.30 230.16 47.39 230.44 44.05 C 227.74 37.97 220.95 35.09 217.68 29.40 M 221.35 25.17 C 221.41 26.78 220.56 29.48 222.79 29.84 C 225.11 34.50 229.60 37.29 233.08 40.95 C 234.98 42.61 234.58 45.48 233.38 47.42 C 230.52 52.19 225.17 54.72 222.13 59.33 C 219.95 62.77 223.57 68.06 227.65 66.59 C 233.11 64.03 235.85 58.13 240.57 54.62 C 243.14 53.70 246.32 53.95 248.45 55.77 C 252.31 58.90 255.26 63.07 259.40 65.87 C 262.20 67.85 266.85 65.60 266.44 61.99 C 263.94 55.18 256.38 51.69 253.89 44.87 C 253.03 42.15 255.62 40.44 257.37 38.94 C 257.22 38.59 256.91 37.90 256.76 37.55 C 261.29 35.36 265.54 32.16 268.21 27.84 C 268.07 23.52 262.73 18.78 258.62 21.67 C 253.90 24.93 250.96 30.12 246.45 33.62 C 244.86 35.01 242.14 35.19 240.61 33.62 C 236.47 30.04 233.38 25.36 228.90 22.16 C 226.33 20.21 221.16 21.33 221.35 25.17 Z" />
</g>
<g id="#818182ff">
<path fill="#818182" opacity="1.00" d=" M 221.35 25.17 C 221.16 21.33 226.33 20.21 228.90 22.16 C 233.38 25.36 236.47 30.04 240.61 33.62 C 242.14 35.19 244.86 35.01 246.45 33.62 C 250.96 30.12 253.90 24.93 258.62 21.67 C 262.73 18.78 268.07 23.52 268.21 27.84 C 265.54 32.16 261.29 35.36 256.76 37.55 C 254.94 38.47 253.02 39.24 251.41 40.51 C 249.89 43.82 250.65 47.64 250.54 51.17 C 246.64 50.49 242.76 49.68 238.94 48.64 C 237.32 40.09 230.84 32.90 222.79 29.84 C 220.56 29.48 221.41 26.78 221.35 25.17 Z" />
</g>
<g id="#6d6d6eff">
<path fill="#6d6d6e" opacity="1.00" d=" M 222.79 29.84 C 230.84 32.90 237.32 40.09 238.94 48.64 C 242.76 49.68 246.64 50.49 250.54 51.17 C 250.65 47.64 249.89 43.82 251.41 40.51 C 253.02 39.24 254.94 38.47 256.76 37.55 C 256.91 37.90 257.22 38.59 257.37 38.94 C 255.62 40.44 253.03 42.15 253.89 44.87 C 256.38 51.69 263.94 55.18 266.44 61.99 C 266.85 65.60 262.20 67.85 259.40 65.87 C 255.26 63.07 252.31 58.90 248.45 55.77 C 246.32 53.95 243.14 53.70 240.57 54.62 C 235.85 58.13 233.11 64.03 227.65 66.59 C 223.57 68.06 219.95 62.77 222.13 59.33 C 225.17 54.72 230.52 52.19 233.38 47.42 C 234.58 45.48 234.98 42.61 233.08 40.95 C 229.60 37.29 225.11 34.50 222.79 29.84 Z" />
</g>
<g id="#00000091">
<path fill="#000000" opacity="0.57" d=" M 185.23 38.66 C 186.03 44.07 186.39 49.54 186.21 55.00 C 184.76 72.99 198.75 89.57 215.61 94.27 C 221.99 95.55 228.54 94.82 235.00 94.90 C 247.00 94.94 259.01 94.66 271.01 95.21 C 271.55 95.22 272.64 95.24 273.19 95.26 C 267.52 96.25 261.77 96.80 256.01 96.68 C 245.74 96.53 235.45 96.81 225.18 96.53 C 218.84 96.17 212.24 95.67 206.53 92.63 C 196.11 87.14 188.27 77.04 185.24 65.69 C 183.52 56.78 184.59 47.63 185.23 38.66 Z" />
</g>
<g id="#39393aff">
<path fill="#39393a" opacity="1.00" d=" M 68.40 106.41 C 70.99 105.53 73.46 107.56 74.06 110.02 C 75.72 115.99 73.57 122.24 74.77 128.25 C 75.89 129.62 77.64 130.27 79.36 130.39 C 85.88 130.95 92.55 129.37 98.97 130.95 C 102.62 131.88 104.54 135.66 104.62 139.19 C 105.06 147.79 104.17 156.39 104.33 165.00 C 104.20 171.21 104.95 177.52 103.64 183.66 C 103.00 186.72 101.01 190.09 97.63 190.52 C 91.24 191.23 84.79 189.74 78.40 190.65 C 76.39 191.02 73.78 192.03 73.60 194.40 C 72.76 200.35 74.26 206.39 73.36 212.34 C 72.82 215.35 68.96 216.14 66.82 214.23 C 60.14 209.70 55.10 203.21 48.84 198.14 C 41.48 190.79 33.08 184.63 25.62 177.39 C 20.82 172.84 15.11 169.05 11.46 163.43 C 10.13 162.06 11.25 160.37 12.00 159.04 C 13.26 157.01 14.94 155.29 16.60 153.60 C 26.05 144.38 35.94 135.61 45.24 126.23 C 50.91 120.88 56.94 115.94 62.66 110.65 C 64.45 109.09 66.18 107.34 68.40 106.41 M 62.80 114.72 C 57.15 118.97 51.71 123.65 47.17 129.09 C 43.44 132.07 39.76 135.12 36.09 138.18 C 32.24 141.34 29.68 145.68 26.20 149.20 C 23.42 152.10 20.22 154.63 17.78 157.86 C 17.10 158.91 15.87 160.10 16.70 161.42 C 19.47 167.34 25.53 170.55 30.03 174.96 C 38.05 183.29 46.56 191.12 55.16 198.83 C 59.15 202.43 62.28 207.44 67.87 208.67 C 68.45 203.52 67.97 198.23 69.30 193.19 C 70.05 190.35 73.15 189.26 75.76 188.83 C 83.33 187.64 91.08 189.70 98.60 187.82 C 101.63 177.65 99.74 167.00 100.71 156.61 C 101.06 150.22 102.20 143.67 100.75 137.35 C 99.95 133.68 95.70 134.03 92.81 133.95 C 87.77 133.89 82.69 135.16 77.68 134.17 C 74.78 133.26 72.02 131.28 70.69 128.49 C 69.48 122.88 71.41 117.11 70.44 111.47 C 67.45 109.12 64.54 112.50 62.80 114.72 Z" />
</g>
<g id="#3e3e3eff">
<path fill="#3e3e3e" opacity="1.00" d=" M 416.92 109.14 C 417.78 106.60 420.88 107.41 422.92 107.67 C 426.08 109.46 428.10 112.67 430.93 114.91 C 434.49 117.80 438.23 120.64 440.47 124.76 C 432.54 121.29 428.37 112.20 419.48 110.61 C 419.42 117.98 420.71 125.71 417.68 132.70 C 412.66 134.50 407.33 135.39 401.99 134.99 C 398.36 135.03 394.42 134.45 391.09 136.22 C 388.21 138.00 388.89 141.83 389.06 144.67 C 390.69 156.55 389.17 168.61 390.90 180.48 C 391.23 182.48 391.65 184.53 392.75 186.26 C 400.75 188.55 409.38 186.22 417.34 188.77 C 419.98 189.52 420.54 192.50 421.02 194.82 C 421.83 199.46 422.45 204.14 423.60 208.72 C 431.96 204.17 436.86 194.90 446.20 192.02 C 438.32 198.52 431.90 206.56 424.00 213.03 C 422.34 214.55 419.93 214.17 417.89 214.48 C 417.34 208.31 417.53 202.11 417.51 195.93 C 417.47 194.09 417.55 191.46 415.24 191.00 C 407.64 189.34 399.73 191.38 392.09 190.01 C 387.62 189.10 386.28 183.99 386.39 180.04 C 386.40 167.35 386.49 154.65 386.32 141.95 C 386.18 138.41 387.18 133.69 391.24 132.84 C 398.00 131.60 404.92 133.09 411.72 132.27 C 413.73 132.01 415.88 130.75 416.28 128.62 C 417.25 122.17 415.60 115.55 416.92 109.14 Z" />
</g>
<g id="#676767ff">
<path fill="#676767" opacity="1.00" d=" M 62.80 114.72 C 64.54 112.50 67.45 109.12 70.44 111.47 C 71.41 117.11 69.48 122.88 70.69 128.49 C 72.02 131.28 74.78 133.26 77.68 134.17 C 82.69 135.16 87.77 133.89 92.81 133.95 C 94.23 134.57 95.62 135.26 96.97 136.02 C 89.23 136.67 81.27 136.92 74.03 140.05 C 78.26 143.05 83.49 144.29 87.59 147.42 C 91.31 152.08 92.53 158.15 95.37 163.33 C 97.62 154.99 97.99 146.32 99.32 137.82 C 100.69 146.43 98.97 155.09 98.61 163.71 C 98.29 171.16 97.53 178.61 95.46 185.80 C 94.77 185.70 94.08 185.60 93.39 185.50 C 92.66 183.04 92.28 180.35 90.77 178.21 C 88.34 175.99 85.07 175.06 82.26 173.45 C 77.61 171.08 74.35 166.89 70.75 163.25 C 67.51 159.81 63.93 156.73 60.66 153.32 C 56.73 149.27 54.46 144.03 51.85 139.11 C 50.65 136.57 49.17 133.99 49.08 131.12 C 49.99 128.32 52.46 126.45 54.43 124.41 C 57.57 121.50 60.24 118.14 62.80 114.72 Z" />
</g>
<g id="#5a5a5aff">
<path fill="#5a5a5a" opacity="1.00" d=" M 419.48 110.61 C 428.37 112.20 432.54 121.29 440.47 124.76 C 446.65 127.90 450.62 133.79 455.92 138.06 C 459.95 141.31 463.05 145.53 467.04 148.83 C 469.38 150.72 472.18 151.93 474.75 153.44 C 474.37 153.73 473.59 154.31 473.20 154.60 C 474.13 156.05 475.25 157.45 475.68 159.15 C 475.96 161.38 474.68 163.40 473.56 165.21 C 473.90 163.38 474.39 161.49 474.01 159.63 C 473.25 157.69 471.62 156.27 470.18 154.84 C 463.83 149.16 457.67 143.25 450.94 138.01 C 443.18 131.12 435.66 123.97 428.04 116.93 C 426.21 115.22 423.98 114.04 421.64 113.22 C 421.75 120.90 422.23 128.81 418.95 136.00 C 424.30 142.32 430.53 147.79 436.15 153.86 C 439.46 157.58 444.11 159.51 448.36 161.92 C 452.52 164.21 455.12 168.56 459.37 170.69 C 463.57 171.22 467.54 169.01 471.21 167.24 C 465.48 171.40 459.95 175.86 454.87 180.82 C 450.59 185.01 445.61 188.37 440.42 191.30 C 439.96 189.38 439.87 187.11 438.22 185.75 C 434.01 181.79 429.39 178.20 424.15 175.71 C 420.68 174.10 417.70 171.66 415.12 168.86 C 411.47 164.93 406.93 161.60 404.69 156.58 C 403.00 152.78 400.98 148.96 397.40 146.61 C 394.81 144.24 389.78 141.93 391.56 137.67 C 398.15 135.40 405.17 138.06 411.89 136.82 C 414.30 136.31 416.02 134.37 417.68 132.70 C 420.71 125.71 419.42 117.98 419.48 110.61 Z" />
<path fill="#5a5a5a" opacity="1.00" d=" M 47.17 129.09 C 51.71 123.65 57.15 118.97 62.80 114.72 C 60.24 118.14 57.57 121.50 54.43 124.41 C 52.46 126.45 49.99 128.32 49.08 131.12 C 49.17 133.99 50.65 136.57 51.85 139.11 C 54.46 144.03 56.73 149.27 60.66 153.32 C 63.93 156.73 67.51 159.81 70.75 163.25 C 74.35 166.89 77.61 171.08 82.26 173.45 C 85.07 175.06 88.34 175.99 90.77 178.21 C 92.28 180.35 92.66 183.04 93.39 185.50 C 94.08 185.60 94.77 185.70 95.46 185.80 C 97.53 178.61 98.29 171.16 98.61 163.71 C 98.97 155.09 100.69 146.43 99.32 137.82 C 98.56 137.19 97.77 136.59 96.97 136.02 C 95.62 135.26 94.23 134.57 92.81 133.95 C 95.70 134.03 99.95 133.68 100.75 137.35 C 102.20 143.67 101.06 150.22 100.71 156.61 C 99.74 167.00 101.63 177.65 98.60 187.82 C 91.80 187.10 84.95 187.13 78.12 187.45 C 74.35 187.55 70.02 187.75 67.10 184.89 C 62.40 180.61 58.31 175.69 53.66 171.34 C 49.08 166.64 43.35 162.77 40.47 156.67 C 38.49 152.56 35.90 148.78 32.70 145.52 C 36.80 139.40 42.98 135.12 47.17 129.09 Z" />
</g>
<g id="#666666ff">
<path fill="#666666" opacity="1.00" d=" M 421.64 113.22 C 423.98 114.04 426.21 115.22 428.04 116.93 C 435.66 123.97 443.18 131.12 450.94 138.01 C 457.67 143.25 463.83 149.16 470.18 154.84 C 471.62 156.27 473.25 157.69 474.01 159.63 C 474.39 161.49 473.90 163.38 473.56 165.21 C 472.83 165.95 472.04 166.62 471.21 167.24 C 467.54 169.01 463.57 171.22 459.37 170.69 C 455.12 168.56 452.52 164.21 448.36 161.92 C 444.11 159.51 439.46 157.58 436.15 153.86 C 430.53 147.79 424.30 142.32 418.95 136.00 C 422.23 128.81 421.75 120.90 421.64 113.22 Z" />
</g>
<g id="#505051ff">
<path fill="#505051" opacity="1.00" d=" M 36.09 138.18 C 39.76 135.12 43.44 132.07 47.17 129.09 C 42.98 135.12 36.80 139.40 32.70 145.52 C 35.90 148.78 38.49 152.56 40.47 156.67 C 43.35 162.77 49.08 166.64 53.66 171.34 C 58.31 175.69 62.40 180.61 67.10 184.89 C 70.02 187.75 74.35 187.55 78.12 187.45 C 84.95 187.13 91.80 187.10 98.60 187.82 C 91.08 189.70 83.33 187.64 75.76 188.83 C 73.15 189.26 70.05 190.35 69.30 193.19 C 67.97 198.23 68.45 203.52 67.87 208.67 C 62.28 207.44 59.15 202.43 55.16 198.83 C 46.56 191.12 38.05 183.29 30.03 174.96 C 25.53 170.55 19.47 167.34 16.70 161.42 C 15.87 160.10 17.10 158.91 17.78 157.86 C 20.22 154.63 23.42 152.10 26.20 149.20 C 29.68 145.68 32.24 141.34 36.09 138.18 Z" />
</g>
<g id="#515152ff">
<path fill="#515152" opacity="1.00" d=" M 401.99 134.99 C 407.33 135.39 412.66 134.50 417.68 132.70 C 416.02 134.37 414.30 136.31 411.89 136.82 C 405.17 138.06 398.15 135.40 391.56 137.67 C 389.78 141.93 394.81 144.24 397.40 146.61 C 400.98 148.96 403.00 152.78 404.69 156.58 C 406.93 161.60 411.47 164.93 415.12 168.86 C 417.70 171.66 420.68 174.10 424.15 175.71 C 429.39 178.20 434.01 181.79 438.22 185.75 C 439.87 187.11 439.96 189.38 440.42 191.30 C 445.61 188.37 450.59 185.01 454.87 180.82 C 459.95 175.86 465.48 171.40 471.21 167.24 C 472.04 166.62 472.83 165.95 473.56 165.21 C 474.68 163.40 475.96 161.38 475.68 159.15 C 475.25 157.45 474.13 156.05 473.20 154.60 C 473.59 154.31 474.37 153.73 474.75 153.44 C 477.40 156.07 479.77 160.04 478.16 163.82 C 475.30 168.33 470.78 171.38 466.61 174.57 C 463.49 178.84 459.60 182.51 454.94 185.06 C 451.57 186.82 449.80 190.66 446.20 192.02 C 436.86 194.90 431.96 204.17 423.60 208.72 C 422.45 204.14 421.83 199.46 421.02 194.82 C 420.54 192.50 419.98 189.52 417.34 188.77 C 409.38 186.22 400.75 188.55 392.75 186.26 C 391.65 184.53 391.23 182.48 390.90 180.48 C 389.17 168.61 390.69 156.55 389.06 144.67 C 388.89 141.83 388.21 138.00 391.09 136.22 C 394.42 134.45 398.36 135.03 401.99 134.99 Z" />
</g>
<g id="#717273ff">
<path fill="#717273" opacity="1.00" d=" M 74.03 140.05 C 81.27 136.92 89.23 136.67 96.97 136.02 C 97.77 136.59 98.56 137.19 99.32 137.82 C 97.99 146.32 97.62 154.99 95.37 163.33 C 92.53 158.15 91.31 152.08 87.59 147.42 C 83.49 144.29 78.26 143.05 74.03 140.05 Z" />
</g>
<g id="#00000042">
<path fill="#000000" opacity="0.26" d=" M 7.65 310.60 C 13.77 298.78 27.04 292.10 39.98 291.31 C 49.65 291.09 59.33 291.41 69.00 291.29 C 81.94 291.58 94.92 290.64 107.82 291.86 L 108.77 291.93 C 103.72 293.76 98.37 294.60 93.00 294.35 C 76.70 293.93 60.38 294.72 44.10 293.84 C 37.79 293.60 31.46 294.72 25.51 296.78 C 18.74 299.22 13.34 304.49 9.37 310.36 C 4.06 318.37 4.39 329.39 9.65 337.33 C 14.11 344.69 21.90 349.19 29.78 352.07 C 35.62 354.16 41.92 353.66 48.00 353.64 C 65.67 353.46 83.34 353.74 101.01 353.47 C 115.42 353.16 128.68 361.75 137.17 372.92 C 139.26 375.64 139.98 379.05 140.94 382.27 L 140.49 381.56 C 136.17 375.05 131.88 368.23 125.41 363.63 C 117.49 358.03 107.65 355.37 98.00 355.65 C 78.98 355.82 59.96 355.68 40.95 355.78 C 31.19 355.98 21.84 351.73 14.38 345.67 C 7.97 340.59 6.42 331.79 0.00 326.67 L 0.00 320.25 C 3.31 317.69 5.80 314.32 7.65 310.60 Z" />
</g>
<g id="#00000038">
<path fill="#000000" opacity="0.22" d=" M 482.94 313.97 C 484.53 317.69 487.21 320.75 490.00 323.62 L 490.00 323.98 C 483.56 327.92 483.26 336.22 478.57 341.56 C 474.48 346.37 468.96 349.76 463.20 352.21 C 456.51 355.03 449.12 355.02 441.99 354.95 C 425.99 354.74 410.00 355.04 394.00 354.79 C 386.91 354.55 379.54 354.71 373.02 357.87 C 362.35 362.24 354.38 371.24 348.78 381.08 C 349.95 377.19 351.28 373.19 354.17 370.20 C 362.72 360.63 374.68 352.70 387.96 353.02 C 405.64 353.21 423.32 353.02 441.00 353.15 C 448.01 353.18 455.41 354.01 462.00 351.05 C 469.00 347.91 476.03 343.70 479.95 336.85 C 484.31 330.10 484.25 321.62 482.94 313.97 Z" />
<path fill="#000000" opacity="0.22" d=" M 142.31 384.96 C 144.34 388.63 145.60 392.73 145.52 396.96 C 145.21 442.64 145.57 488.32 145.33 533.99 C 145.48 538.83 144.55 544.02 146.53 548.58 C 148.52 550.69 151.85 550.44 154.54 550.67 C 212.70 550.54 270.86 550.75 329.02 550.57 C 333.84 550.25 339.16 551.12 343.52 548.62 C 345.53 543.34 344.48 537.51 344.64 532.00 C 344.50 486.65 344.72 441.29 344.52 395.94 C 344.55 392.02 346.13 388.39 347.52 384.80 C 345.79 393.76 345.81 402.92 346.04 412.00 C 346.11 454.00 345.99 496.01 346.11 538.01 C 346.03 541.52 345.63 545.03 345.34 548.54 C 344.72 555.04 346.26 561.49 346.13 568.00 C 345.97 576.34 347.01 584.88 350.67 592.47 C 353.18 597.32 356.78 601.54 360.69 605.32 C 368.51 612.64 379.35 616.23 389.97 616.06 C 406.98 615.93 423.99 616.09 441.00 615.96 C 448.22 615.95 455.85 615.19 462.60 618.33 C 467.73 620.70 472.49 623.79 477.21 626.87 C 480.34 629.53 482.73 632.99 483.81 636.99 C 484.39 641.03 486.67 644.33 490.00 646.65 L 490.00 650.00 L 484.42 650.00 C 483.61 644.54 483.42 638.59 480.09 633.94 C 474.22 625.80 465.30 619.99 455.57 617.65 C 449.13 616.32 442.52 616.96 436.00 616.92 C 418.98 616.93 401.96 616.92 384.94 616.98 C 374.03 617.14 363.73 611.40 356.68 603.33 C 347.86 593.95 343.59 580.76 344.06 568.00 C 344.12 563.85 343.94 559.71 343.60 555.58 C 339.96 556.68 336.38 558.01 332.96 559.69 C 328.01 562.10 322.40 563.41 318.24 567.22 C 313.44 571.55 309.32 576.89 307.24 583.07 C 303.72 595.46 308.38 608.73 304.11 621.00 C 301.63 627.92 298.52 634.94 293.03 640.03 C 289.32 643.42 285.52 646.73 281.69 650.00 L 277.53 650.00 C 281.24 647.21 284.99 644.47 288.68 641.66 C 298.43 633.93 303.83 621.39 303.67 609.05 C 303.68 598.57 302.61 587.36 307.76 577.77 C 312.02 570.36 318.22 563.67 326.28 560.42 C 329.36 559.24 331.82 557.01 333.80 554.42 C 324.38 551.87 314.60 553.09 305.00 553.07 C 264.00 553.05 223.00 553.06 182.00 553.07 C 172.75 553.11 163.14 551.51 154.30 555.05 C 158.26 559.72 164.19 561.72 170.07 562.60 C 170.26 562.87 170.65 563.42 170.84 563.69 C 174.23 569.11 179.19 573.51 181.57 579.55 C 184.86 586.89 185.60 595.05 185.36 603.01 C 185.36 609.68 184.39 616.66 186.93 623.03 C 189.53 629.54 193.35 635.68 198.68 640.31 C 202.51 643.61 206.41 646.84 210.36 650.00 L 205.40 650.00 C 202.49 646.77 199.66 643.48 196.48 640.52 C 190.93 635.41 186.86 628.81 184.32 621.74 C 180.63 609.15 186.05 595.48 181.01 583.12 C 177.68 574.45 171.93 565.63 162.67 562.60 C 157.09 560.77 151.68 558.46 146.42 555.83 C 145.54 563.10 146.38 570.45 145.45 577.71 C 144.03 585.45 141.43 593.24 136.18 599.27 C 140.70 590.20 144.35 580.32 143.87 570.03 C 143.54 562.27 145.49 554.57 144.52 546.82 C 143.31 536.25 144.20 525.60 143.96 515.00 C 143.95 481.66 143.96 448.33 143.95 415.00 C 143.96 404.98 144.73 394.78 142.31 384.96 Z" />
</g>
<g id="#00000067">
<path fill="#000000" opacity="0.40" d=" M 478.57 341.56 C 483.26 336.22 483.56 327.92 490.00 323.98 L 490.00 328.37 C 483.73 333.59 481.58 342.12 475.00 347.02 C 467.48 353.23 457.83 356.66 448.08 356.61 C 429.05 356.57 410.02 356.65 391.00 356.50 C 382.57 356.36 374.11 358.57 366.87 362.87 C 357.37 368.98 350.12 379.04 348.63 390.37 C 347.77 397.21 348.26 404.13 348.21 411.00 C 348.22 453.00 348.17 495.00 348.23 537.00 C 348.07 544.67 347.23 552.34 347.91 560.01 C 348.71 570.50 346.93 581.66 351.67 591.47 C 355.04 597.71 359.79 603.32 365.64 607.37 C 373.80 612.38 383.37 615.29 392.99 614.90 C 411.66 614.70 430.33 614.93 449.00 614.73 C 459.72 614.10 470.14 618.94 477.21 626.87 C 472.49 623.79 467.73 620.70 462.60 618.33 C 455.85 615.19 448.22 615.95 441.00 615.96 C 423.99 616.09 406.98 615.93 389.97 616.06 C 379.35 616.23 368.51 612.64 360.69 605.32 C 356.78 601.54 353.18 597.32 350.67 592.47 C 347.01 584.88 345.97 576.34 346.13 568.00 C 346.26 561.49 344.72 555.04 345.34 548.54 C 345.63 545.03 346.03 541.52 346.11 538.01 C 345.99 496.01 346.11 454.00 346.04 412.00 C 345.81 402.92 345.79 393.76 347.52 384.80 C 347.93 383.55 348.34 382.31 348.78 381.08 C 354.38 371.24 362.35 362.24 373.02 357.87 C 379.54 354.71 386.91 354.55 394.00 354.79 C 410.00 355.04 425.99 354.74 441.99 354.95 C 449.12 355.02 456.51 355.03 463.20 352.21 C 468.96 349.76 474.48 346.37 478.57 341.56 Z" />
</g>
<g id="#00000066">
<path fill="#000000" opacity="0.40" d=" M 140.49 381.56 L 140.94 382.27 C 141.41 383.16 141.87 384.05 142.31 384.96 C 144.73 394.78 143.96 404.98 143.95 415.00 C 143.96 448.33 143.95 481.66 143.96 515.00 C 144.20 525.60 143.31 536.25 144.52 546.82 C 145.49 554.57 143.54 562.27 143.87 570.03 C 144.35 580.32 140.70 590.20 136.18 599.27 C 129.27 608.98 118.28 616.51 106.05 616.58 C 84.69 616.62 63.33 616.63 41.97 616.51 C 34.69 616.41 27.84 619.26 21.34 622.24 C 15.10 624.84 9.79 629.74 7.30 636.09 C 5.84 640.25 3.39 643.93 0.00 646.78 L 0.00 641.86 C 3.36 638.47 6.19 634.64 8.71 630.60 C 12.88 624.42 19.25 620.05 25.98 617.05 C 31.31 614.67 37.27 614.55 43.01 614.58 C 62.00 614.79 81.00 614.52 100.00 614.74 C 105.80 614.81 111.76 614.39 117.10 611.94 C 126.15 608.05 133.13 600.36 137.91 591.91 C 143.35 581.84 141.23 570.09 142.17 559.16 C 142.88 551.10 141.78 543.05 141.76 535.00 C 141.89 490.00 141.72 444.99 141.85 399.99 C 141.80 393.82 141.12 387.69 140.49 381.56 Z" />
</g>
<g id="#3d3d3dff">
<path fill="#3d3d3d" opacity="1.00" d=" M 67.48 428.65 C 70.14 428.08 72.83 429.03 75.45 429.48 C 75.90 435.67 75.61 441.86 75.60 448.05 C 75.69 449.90 75.65 452.90 78.13 453.11 C 86.05 454.29 94.23 452.13 102.05 454.12 C 105.96 455.14 105.64 459.77 105.75 462.94 C 105.70 476.98 105.63 491.03 105.71 505.07 C 105.79 509.22 104.58 514.43 100.15 515.92 C 92.35 517.89 84.11 515.21 76.33 517.37 C 74.28 524.45 76.72 532.00 75.07 539.16 C 72.88 541.52 68.64 541.21 65.91 539.93 C 60.02 535.64 55.08 530.19 49.77 525.22 C 39.90 516.79 30.28 508.08 20.81 499.22 C 17.27 496.10 13.16 493.58 10.15 489.91 C 7.90 487.18 7.79 482.80 10.20 480.14 C 17.07 472.67 25.41 466.74 32.45 459.44 C 36.31 455.57 41.16 452.87 45.01 448.99 C 49.64 444.29 54.86 440.20 59.32 435.32 C 61.80 432.85 64.15 429.99 67.48 428.65 M 60.53 436.53 C 49.63 447.60 38.30 458.23 26.84 468.71 C 20.82 473.32 15.23 478.58 11.13 485.01 C 15.20 492.11 22.41 496.29 28.06 501.93 C 40.42 513.25 52.73 524.62 65.15 535.87 C 66.93 537.65 69.57 537.56 71.88 537.91 C 72.89 532.30 72.41 526.60 72.55 520.94 C 72.54 518.35 73.63 515.23 76.40 514.49 C 80.85 513.15 85.49 514.62 90.04 514.44 C 94.27 514.51 99.65 514.18 101.86 509.92 C 104.92 504.34 102.09 497.93 102.69 491.98 C 103.59 482.38 103.51 472.73 103.40 463.10 C 103.38 460.03 101.97 456.30 98.60 455.68 C 91.44 454.71 84.17 456.15 77.02 455.20 C 73.54 454.29 72.90 450.10 72.79 447.05 C 72.99 441.95 73.49 436.83 72.66 431.76 C 70.76 431.66 68.86 431.50 66.97 431.71 C 64.42 432.68 62.44 434.64 60.53 436.53 Z" />
</g>
<g id="#454545ff">
<path fill="#454545" opacity="1.00" d=" M 418.45 428.59 C 422.53 427.70 425.67 431.17 428.51 433.52 C 439.53 444.17 451.18 454.14 462.35 464.64 C 468.34 469.62 474.41 474.56 479.78 480.22 C 482.39 482.96 482.12 487.79 479.37 490.35 C 475.66 494.02 471.11 496.72 467.36 500.36 C 461.63 505.98 455.28 510.91 449.49 516.47 C 442.83 522.14 436.77 528.46 430.11 534.13 C 427.03 536.65 424.64 541.29 420.04 540.76 C 418.15 540.68 415.48 540.50 414.88 538.30 C 413.69 532.27 415.01 526.09 414.36 520.02 C 414.23 518.64 413.62 516.73 411.93 516.76 C 406.00 516.02 400.02 516.91 394.07 516.49 C 388.25 516.29 383.30 510.79 383.47 505.01 C 383.41 491.66 383.51 478.31 383.42 464.97 C 383.23 460.75 384.68 455.69 389.16 454.30 C 397.13 451.95 405.69 454.93 413.68 452.67 C 415.68 445.78 413.44 438.48 414.72 431.48 C 415.14 429.85 416.96 429.01 418.45 428.59 M 416.81 433.49 C 415.89 439.27 417.20 445.17 416.26 450.94 C 415.81 453.42 413.43 455.08 411.02 455.26 C 405.01 455.94 398.96 454.99 392.95 455.50 C 388.75 455.69 385.22 459.70 385.44 463.89 C 385.43 477.29 385.48 490.69 385.44 504.09 C 385.09 508.76 389.00 512.58 393.16 513.94 C 400.05 515.47 407.30 513.23 414.14 515.01 C 418.36 517.59 417.34 523.21 417.32 527.39 C 417.24 531.24 416.53 536.73 421.05 538.42 C 423.02 538.03 424.07 536.21 425.19 534.75 C 428.74 530.74 433.38 527.92 437.01 523.98 C 440.72 519.91 445.57 517.00 448.87 512.53 C 455.17 507.82 460.78 502.00 466.57 496.59 C 470.43 493.28 474.82 490.32 477.54 485.93 C 478.15 483.30 475.71 481.66 474.25 479.91 C 470.12 474.30 463.72 471.02 459.01 465.98 C 454.21 460.75 448.37 456.64 443.45 451.53 C 438.15 446.96 432.68 442.49 428.31 436.98 C 427.99 436.80 427.34 436.44 427.02 436.27 C 425.92 434.14 424.76 431.72 422.43 430.73 C 420.26 430.00 417.09 430.89 416.81 433.49 Z" />
</g>
<g id="#818283ff">
<path fill="#818283" opacity="1.00" d=" M 416.81 433.49 C 417.09 430.89 420.26 430.00 422.43 430.73 C 424.76 431.72 425.92 434.14 427.02 436.27 C 424.89 435.30 422.66 434.61 420.44 433.92 C 419.50 439.24 419.73 444.64 419.50 450.02 C 419.38 453.23 417.26 455.84 415.43 458.31 C 408.92 458.40 402.42 458.28 395.91 458.29 C 393.76 458.42 391.37 458.24 389.52 459.53 C 388.05 461.67 388.45 464.46 388.31 466.93 C 388.51 478.98 388.41 491.04 388.35 503.09 C 388.44 505.89 388.38 509.91 391.63 511.00 C 398.89 512.72 406.54 510.40 413.81 512.23 C 416.93 512.94 419.16 515.85 419.43 518.98 C 419.98 524.12 419.57 529.30 419.50 534.46 C 421.39 534.55 423.29 534.64 425.19 534.75 C 424.07 536.21 423.02 538.03 421.05 538.42 C 416.53 536.73 417.24 531.24 417.32 527.39 C 417.34 523.21 418.36 517.59 414.14 515.01 C 407.30 513.23 400.05 515.47 393.16 513.94 C 389.00 512.58 385.09 508.76 385.44 504.09 C 385.48 490.69 385.43 477.29 385.44 463.89 C 385.22 459.70 388.75 455.69 392.95 455.50 C 398.96 454.99 405.01 455.94 411.02 455.26 C 413.43 455.08 415.81 453.42 416.26 450.94 C 417.20 445.17 415.89 439.27 416.81 433.49 Z" />
</g>
<g id="#939494ff">
<path fill="#939494" opacity="1.00" d=" M 60.53 436.53 C 62.44 434.64 64.42 432.68 66.97 431.71 C 68.86 431.50 70.76 431.66 72.66 431.76 C 73.49 436.83 72.99 441.95 72.79 447.05 C 72.90 450.10 73.54 454.29 77.02 455.20 C 84.17 456.15 91.44 454.71 98.60 455.68 C 101.97 456.30 103.38 460.03 103.40 463.10 C 103.51 472.73 103.59 482.38 102.69 491.98 C 102.09 497.93 104.92 504.34 101.86 509.92 C 99.65 514.18 94.27 514.51 90.04 514.44 C 85.49 514.62 80.85 513.15 76.40 514.49 C 73.63 515.23 72.54 518.35 72.55 520.94 C 72.41 526.60 72.89 532.30 71.88 537.91 C 69.57 537.56 66.93 537.65 65.15 535.87 C 52.73 524.62 40.42 513.25 28.06 501.93 C 22.41 496.29 15.20 492.11 11.13 485.01 C 15.23 478.58 20.82 473.32 26.84 468.71 C 38.30 458.23 49.63 447.60 60.53 436.53 M 62.78 437.72 C 59.63 441.62 55.64 444.72 52.40 448.54 C 47.12 452.83 41.66 457.15 37.41 462.50 C 32.05 466.00 27.87 470.94 22.75 474.74 C 19.46 477.60 15.36 480.50 14.42 485.01 C 15.34 489.82 20.21 492.32 23.55 495.38 C 36.70 507.27 49.45 519.61 62.94 531.14 C 64.82 532.81 67.09 533.95 69.33 535.06 C 69.72 530.02 69.40 524.97 69.53 519.93 C 69.64 517.54 69.81 514.43 72.41 513.40 C 80.64 509.31 90.19 513.61 98.61 510.33 L 99.28 510.54 C 99.56 500.57 99.94 490.58 99.18 480.63 C 99.88 472.99 100.30 465.12 98.61 457.58 C 92.05 457.43 85.49 457.78 78.93 457.63 C 74.98 457.68 70.77 455.03 70.11 450.93 C 69.13 445.66 69.83 440.25 69.65 434.92 C 67.18 435.32 64.33 435.41 62.78 437.72 Z" />
</g>
<g id="#eeeeeeff">
<path fill="#eeeeee" opacity="1.00" d=" M 420.44 433.92 C 422.66 434.61 424.89 435.30 427.02 436.27 C 427.34 436.44 427.99 436.80 428.31 436.98 C 426.48 437.69 424.64 438.39 422.80 439.07 C 422.85 442.97 422.62 446.93 423.47 450.76 C 424.58 453.68 427.49 455.45 428.79 458.27 C 430.13 464.77 427.52 471.77 430.09 478.06 C 433.23 482.67 437.32 486.78 441.95 489.90 C 447.47 491.93 453.56 490.75 459.33 491.20 C 455.59 496.72 449.69 500.70 447.54 507.24 C 452.04 505.55 455.96 502.70 459.24 499.23 C 463.00 495.27 467.48 492.08 471.24 488.13 C 473.37 485.94 473.86 482.81 474.25 479.91 C 475.71 481.66 478.15 483.30 477.54 485.93 C 474.82 490.32 470.43 493.28 466.57 496.59 C 460.78 502.00 455.17 507.82 448.87 512.53 C 442.46 513.50 437.32 517.51 432.32 521.32 C 433.07 517.92 434.25 514.53 434.16 511.01 C 430.63 509.21 426.51 508.33 423.68 505.35 C 418.90 500.45 413.24 496.06 410.42 489.63 C 408.50 485.35 405.00 481.36 405.47 476.39 C 405.34 473.88 406.10 471.17 405.10 468.81 C 402.30 465.66 397.88 468.37 394.58 469.15 C 394.06 467.29 393.56 465.44 393.05 463.59 C 400.54 462.78 409.91 464.73 415.43 458.31 C 417.26 455.84 419.38 453.23 419.50 450.02 C 419.73 444.64 419.50 439.24 420.44 433.92 Z" />
</g>
<g id="#eaebebff">
<path fill="#eaebeb" opacity="1.00" d=" M 62.78 437.72 C 64.33 435.41 67.18 435.32 69.65 434.92 C 69.83 440.25 69.13 445.66 70.11 450.93 C 70.77 455.03 74.98 457.68 78.93 457.63 C 85.49 457.78 92.05 457.43 98.61 457.58 C 100.30 465.12 99.88 472.99 99.18 480.63 C 96.96 489.48 97.26 498.64 96.28 507.65 C 91.06 505.53 90.33 499.02 85.63 496.32 C 78.45 491.88 69.70 489.68 63.86 483.28 C 59.10 478.02 58.28 470.71 55.22 464.57 C 52.77 460.25 47.18 460.98 42.99 461.05 C 46.43 457.11 49.44 452.83 52.40 448.54 C 55.64 444.72 59.63 441.62 62.78 437.72 M 68.42 457.05 C 67.37 462.02 72.36 464.68 75.67 467.25 C 80.97 470.74 85.11 475.94 91.22 478.16 C 92.30 483.52 93.00 488.99 94.69 494.21 C 96.74 486.89 96.65 479.23 97.72 471.75 C 98.33 467.84 97.96 463.87 97.04 460.05 C 91.34 460.51 85.66 461.38 79.93 461.20 C 75.73 461.12 72.08 458.84 68.42 457.05 Z" />
</g>
<g id="#f7f7f7ff">
<path fill="#f7f7f7" opacity="1.00" d=" M 428.31 436.98 C 432.68 442.49 438.15 446.96 443.45 451.53 C 448.37 456.64 454.21 460.75 459.01 465.98 C 463.72 471.02 470.12 474.30 474.25 479.91 C 473.86 482.81 473.37 485.94 471.24 488.13 C 467.48 492.08 463.00 495.27 459.24 499.23 C 455.96 502.70 452.04 505.55 447.54 507.24 C 449.69 500.70 455.59 496.72 459.33 491.20 C 453.56 490.75 447.47 491.93 441.95 489.90 C 437.32 486.78 433.23 482.67 430.09 478.06 C 427.52 471.77 430.13 464.77 428.79 458.27 C 427.49 455.45 424.58 453.68 423.47 450.76 C 422.62 446.93 422.85 442.97 422.80 439.07 C 424.64 438.39 426.48 437.69 428.31 436.98 Z" />
</g>
<g id="#e0e1e2ff">
<path fill="#e0e1e2" opacity="1.00" d=" M 37.41 462.50 C 41.66 457.15 47.12 452.83 52.40 448.54 C 49.44 452.83 46.43 457.11 42.99 461.05 C 47.18 460.98 52.77 460.25 55.22 464.57 C 58.28 470.71 59.10 478.02 63.86 483.28 C 69.70 489.68 78.45 491.88 85.63 496.32 C 90.33 499.02 91.06 505.53 96.28 507.65 C 97.26 498.64 96.96 489.48 99.18 480.63 C 99.94 490.58 99.56 500.57 99.28 510.54 L 98.61 510.33 C 89.28 506.69 79.17 508.02 69.58 509.70 C 67.08 507.15 64.50 504.60 61.33 502.89 C 57.46 500.58 52.65 498.95 50.49 494.66 C 48.67 491.19 47.25 487.44 44.40 484.64 C 41.09 481.33 38.85 477.22 36.36 473.32 C 32.39 473.98 28.78 475.81 25.09 477.34 C 29.43 472.59 34.06 468.04 37.41 462.50 Z" />
</g>
<g id="#f8f8f8ff">
<path fill="#f8f8f8" opacity="1.00" d=" M 68.42 457.05 C 72.08 458.84 75.73 461.12 79.93 461.20 C 85.66 461.38 91.34 460.51 97.04 460.05 C 97.96 463.87 98.33 467.84 97.72 471.75 C 96.65 479.23 96.74 486.89 94.69 494.21 C 93.00 488.99 92.30 483.52 91.22 478.16 C 85.11 475.94 80.97 470.74 75.67 467.25 C 72.36 464.68 67.37 462.02 68.42 457.05 Z" />
</g>
<g id="#e4e4e5ff">
<path fill="#e4e4e5" opacity="1.00" d=" M 389.52 459.53 C 391.37 458.24 393.76 458.42 395.91 458.29 C 402.42 458.28 408.92 458.40 415.43 458.31 C 409.91 464.73 400.54 462.78 393.05 463.59 C 393.56 465.44 394.06 467.29 394.58 469.15 C 397.88 468.37 402.30 465.66 405.10 468.81 C 406.10 471.17 405.34 473.88 405.47 476.39 C 405.00 481.36 408.50 485.35 410.42 489.63 C 413.24 496.06 418.90 500.45 423.68 505.35 C 426.51 508.33 430.63 509.21 434.16 511.01 C 434.25 514.53 433.07 517.92 432.32 521.32 C 437.32 517.51 442.46 513.50 448.87 512.53 C 445.57 517.00 440.72 519.91 437.01 523.98 C 433.38 527.92 428.74 530.74 425.19 534.75 C 423.29 534.64 421.39 534.55 419.50 534.46 C 419.57 529.30 419.98 524.12 419.43 518.98 C 419.16 515.85 416.93 512.94 413.81 512.23 C 406.54 510.40 398.89 512.72 391.63 511.00 C 388.38 509.91 388.44 505.89 388.35 503.09 C 388.41 491.04 388.51 478.98 388.31 466.93 C 388.45 464.46 388.05 461.67 389.52 459.53 Z" />
</g>
<g id="#d6d7d8ff">
<path fill="#d6d7d8" opacity="1.00" d=" M 22.75 474.74 C 27.87 470.94 32.05 466.00 37.41 462.50 C 34.06 468.04 29.43 472.59 25.09 477.34 C 28.78 475.81 32.39 473.98 36.36 473.32 C 38.85 477.22 41.09 481.33 44.40 484.64 C 47.25 487.44 48.67 491.19 50.49 494.66 C 52.65 498.95 57.46 500.58 61.33 502.89 C 64.50 504.60 67.08 507.15 69.58 509.70 C 79.17 508.02 89.28 506.69 98.61 510.33 C 90.19 513.61 80.64 509.31 72.41 513.40 C 69.81 514.43 69.64 517.54 69.53 519.93 C 69.40 524.97 69.72 530.02 69.33 535.06 C 67.09 533.95 64.82 532.81 62.94 531.14 C 49.45 519.61 36.70 507.27 23.55 495.38 C 20.21 492.32 15.34 489.82 14.42 485.01 C 15.36 480.50 19.46 477.60 22.75 474.74 Z" />
</g>
<g id="#00000079">
<path fill="#000000" opacity="0.47" d=" M 154.30 555.05 C 163.14 551.51 172.75 553.11 182.00 553.07 C 223.00 553.06 264.00 553.05 305.00 553.07 C 314.60 553.09 324.38 551.87 333.80 554.42 C 331.82 557.01 329.36 559.24 326.28 560.42 C 318.22 563.67 312.02 570.36 307.76 577.77 C 302.61 587.36 303.68 598.57 303.67 609.05 C 303.83 621.39 298.43 633.93 288.68 641.66 C 284.99 644.47 281.24 647.21 277.53 650.00 L 274.51 650.00 C 277.72 647.64 280.91 645.26 284.27 643.11 C 293.66 637.18 300.43 626.92 301.46 615.78 C 302.29 607.34 300.85 598.78 302.34 590.38 C 303.48 584.04 305.53 577.67 309.53 572.52 C 312.42 568.80 315.61 565.30 319.05 562.08 C 321.53 560.42 324.09 558.85 326.32 556.85 C 324.15 554.66 320.88 554.83 318.04 554.84 C 302.71 555.74 287.35 555.13 272.00 555.31 C 242.33 555.32 212.66 555.28 183.00 555.33 C 175.68 555.39 168.10 553.67 161.07 556.56 C 163.84 558.48 166.69 560.27 169.59 561.97 L 170.07 562.60 C 164.19 561.72 158.26 559.72 154.30 555.05 Z" />
</g>
<g id="#000000e3">
<path fill="#000000" opacity="0.89" d=" M 161.07 556.56 C 168.10 553.67 175.68 555.39 183.00 555.33 C 212.66 555.28 242.33 555.32 272.00 555.31 C 287.35 555.13 302.71 555.74 318.04 554.84 C 320.88 554.83 324.15 554.66 326.32 556.85 C 324.09 558.85 321.53 560.42 319.05 562.08 C 309.41 567.10 303.96 577.14 301.28 587.30 C 297.57 598.99 301.95 611.53 298.15 623.20 C 298.18 614.12 297.61 605.03 297.90 595.95 C 298.08 588.79 300.85 582.04 303.83 575.65 C 307.25 568.42 314.13 563.91 319.50 558.27 C 312.72 557.10 305.83 557.61 299.00 557.79 C 264.67 557.78 230.33 557.73 196.00 557.81 C 187.20 558.04 178.37 556.83 169.61 558.16 C 170.27 559.65 170.93 561.15 171.64 562.64 C 171.13 562.47 170.10 562.14 169.59 561.97 C 166.69 560.27 163.84 558.48 161.07 556.56 Z" />
</g>
<g id="#000000ba">
<path fill="#000000" opacity="0.73" d=" M 169.59 561.97 C 170.10 562.14 171.13 562.47 171.64 562.64 C 175.70 565.02 179.11 568.41 181.66 572.36 C 186.42 579.35 187.40 588.00 188.71 596.15 C 190.22 605.89 187.39 616.25 191.50 625.54 C 194.92 633.13 200.93 639.65 208.42 643.36 C 212.07 645.16 215.38 647.54 218.61 650.00 L 214.58 650.00 C 209.78 646.20 204.27 643.40 199.68 639.36 C 191.81 631.76 186.11 621.18 186.62 610.00 C 186.95 598.87 187.26 587.16 182.10 576.94 C 179.75 571.47 175.12 567.60 170.84 563.69 C 170.65 563.42 170.26 562.87 170.07 562.60 L 169.59 561.97 Z" />
</g>
<g id="#000000af">
<path fill="#000000" opacity="0.69" d=" M 301.28 587.30 C 303.96 577.14 309.41 567.10 319.05 562.08 C 315.61 565.30 312.42 568.80 309.53 572.52 C 305.53 577.67 303.48 584.04 302.34 590.38 C 300.85 598.78 302.29 607.34 301.46 615.78 C 300.43 626.92 293.66 637.18 284.27 643.11 C 280.91 645.26 277.72 647.64 274.51 650.00 L 271.26 650.00 C 273.95 647.29 276.99 644.94 280.45 643.29 C 288.74 639.37 295.32 631.91 298.15 623.20 C 301.95 611.53 297.57 598.99 301.28 587.30 Z" />
</g>
<g id="#00000084">
<path fill="#000000" opacity="0.52" d=" M 181.57 579.55 C 179.19 573.51 174.23 569.11 170.84 563.69 C 175.12 567.60 179.75 571.47 182.10 576.94 C 187.26 587.16 186.95 598.87 186.62 610.00 C 186.11 621.18 191.81 631.76 199.68 639.36 C 204.27 643.40 209.78 646.20 214.58 650.00 L 210.36 650.00 C 206.41 646.84 202.51 643.61 198.68 640.31 C 193.35 635.68 189.53 629.54 186.93 623.03 C 184.39 616.66 185.36 609.68 185.36 603.01 C 185.60 595.05 184.86 586.89 181.57 579.55 Z" />
</g>
<g id="#636363ff">
<path fill="#636363" opacity="1.00" d=" M 259.40 573.27 C 265.04 570.28 271.12 577.55 270.58 582.92 C 266.88 589.04 259.47 592.31 256.42 599.00 C 259.78 605.37 266.80 608.80 270.15 615.17 C 271.28 617.33 269.34 619.48 268.02 621.04 C 266.19 622.82 263.93 625.25 261.09 624.49 C 254.18 621.49 251.22 613.16 244.04 610.72 C 238.02 613.97 234.20 619.86 229.28 624.39 C 227.78 626.12 225.38 625.27 223.74 624.28 C 220.59 622.43 217.40 618.99 218.63 615.05 C 221.93 608.99 229.18 605.67 231.46 599.02 C 228.93 593.04 222.26 590.24 218.92 584.78 C 216.04 578.98 222.88 571.87 228.77 573.78 C 233.32 577.34 236.54 582.33 241.12 585.87 C 242.43 587.07 244.58 586.95 245.97 585.93 C 250.90 582.21 254.08 576.52 259.40 573.27 M 254.12 582.01 C 251.03 584.08 248.73 587.05 245.95 589.48 C 244.43 589.78 242.52 590.25 241.19 589.22 C 236.11 585.33 232.61 579.54 226.90 576.45 C 222.59 575.69 219.95 580.72 221.93 584.21 C 224.07 587.49 227.09 590.20 230.53 592.08 C 231.99 594.84 235.15 597.52 234.29 600.92 C 231.71 606.84 224.77 609.30 222.00 615.07 C 221.95 616.92 222.19 618.77 222.38 620.62 C 224.20 620.81 226.03 621.17 227.88 621.06 C 232.85 618.52 235.68 613.37 239.92 609.90 C 242.33 607.57 246.56 607.82 248.96 610.05 C 252.38 612.93 254.98 616.66 258.48 619.46 C 260.26 621.06 263.05 621.24 265.12 620.12 C 267.20 618.87 267.20 615.86 265.95 614.03 C 262.98 609.36 258.16 606.24 255.10 601.64 C 253.26 598.98 255.48 595.99 256.45 593.45 C 258.52 591.96 260.41 590.21 261.85 588.09 C 264.39 586.86 266.74 584.74 267.54 581.97 C 267.73 578.51 264.32 575.57 261.01 575.53 C 258.13 576.88 255.45 579.05 254.12 582.01 Z" />
</g>
<g id="#e0e0e2ff">
<path fill="#e0e0e2" opacity="1.00" d=" M 254.12 582.01 C 255.45 579.05 258.13 576.88 261.01 575.53 C 264.32 575.57 267.73 578.51 267.54 581.97 C 266.74 584.74 264.39 586.86 261.85 588.09 C 257.33 589.84 253.44 592.73 249.97 596.06 C 247.17 599.05 242.77 597.76 239.19 597.68 C 239.22 596.44 239.26 595.22 239.30 594.00 C 242.38 593.32 245.64 592.97 248.42 591.37 C 251.59 589.22 252.60 585.30 254.12 582.01 Z" />
</g>
<g id="#c9c9cbff">
<path fill="#c9c9cb" opacity="1.00" d=" M 221.93 584.21 C 219.95 580.72 222.59 575.69 226.90 576.45 C 232.61 579.54 236.11 585.33 241.19 589.22 C 242.52 590.25 244.43 589.78 245.95 589.48 C 248.73 587.05 251.03 584.08 254.12 582.01 C 252.60 585.30 251.59 589.22 248.42 591.37 C 245.64 592.97 242.38 593.32 239.30 594.00 C 239.26 595.22 239.22 596.44 239.19 597.68 C 242.77 597.76 247.17 599.05 249.97 596.06 C 253.44 592.73 257.33 589.84 261.85 588.09 C 260.41 590.21 258.52 591.96 256.45 593.45 C 254.45 595.08 251.80 597.00 252.46 599.97 C 253.37 606.25 259.73 609.46 262.36 614.85 C 261.97 615.85 261.39 616.76 260.87 617.71 C 257.27 614.45 254.07 610.72 250.16 607.81 C 246.56 605.05 241.80 605.39 237.52 605.22 C 237.16 602.10 237.13 598.86 236.00 595.91 C 234.68 594.06 232.37 593.27 230.53 592.08 C 227.09 590.20 224.07 587.49 221.93 584.21 Z" />
</g>
<g id="#abacadff">
<path fill="#abacad" opacity="1.00" d=" M 230.53 592.08 C 232.37 593.27 234.68 594.06 236.00 595.91 C 237.13 598.86 237.16 602.10 237.52 605.22 C 241.80 605.39 246.56 605.05 250.16 607.81 C 254.07 610.72 257.27 614.45 260.87 617.71 C 261.39 616.76 261.97 615.85 262.36 614.85 C 259.73 609.46 253.37 606.25 252.46 599.97 C 251.80 597.00 254.45 595.08 256.45 593.45 C 255.48 595.99 253.26 598.98 255.10 601.64 C 258.16 606.24 262.98 609.36 265.95 614.03 C 267.20 615.86 267.20 618.87 265.12 620.12 C 263.05 621.24 260.26 621.06 258.48 619.46 C 254.98 616.66 252.38 612.93 248.96 610.05 C 246.56 607.82 242.33 607.57 239.92 609.90 C 235.68 613.37 232.85 618.52 227.88 621.06 C 226.03 621.17 224.20 620.81 222.38 620.62 C 222.19 618.77 221.95 616.92 222.00 615.07 C 224.77 609.30 231.71 606.84 234.29 600.92 C 235.15 597.52 231.99 594.84 230.53 592.08 Z" />
</g>
<g id="#00000039">
<path fill="#000000" opacity="0.22" d=" M 7.30 636.09 C 9.79 629.74 15.10 624.84 21.34 622.24 C 17.45 625.69 13.65 629.31 10.36 633.36 C 6.56 638.03 6.42 644.32 5.59 650.00 L 0.00 650.00 L 0.00 646.78 C 3.39 643.93 5.84 640.25 7.30 636.09 Z" />
</g>
<g id="#0000006a">
<path fill="#000000" opacity="0.42" d=" M 483.81 636.99 C 485.77 639.21 487.96 641.20 490.00 643.36 L 490.00 646.65 C 486.67 644.33 484.39 641.03 483.81 636.99 Z" />
</g>
</svg>
